<?xml version="1.0" encoding="utf-8"?>
<!-- Generator: Adobe Illustrator 25.2.1, SVG Export Plug-In . SVG Version: 6.00 Build 0)  -->
<svg version="1.1" baseProfile="basic" xmlns="http://www.w3.org/2000/svg" xmlns:xlink="http://www.w3.org/1999/xlink" x="0px"
	 y="0px" viewBox="0 0 1160.2 490" xml:space="preserve">
<style type="text/css">
	.st0{display:none;}
	.st1{fill:none;stroke:#ffffff;stroke-width:4;stroke-miterlimit:10;}
	.st2{fill:none;stroke:#ffffff;stroke-width:4;stroke-miterlimit:10;stroke-dasharray:12.0077,12.0077;}
</style>
<g id="Layer_2">
	<g>
		<path class="st1" d="M0,254.6c2,0.1,4,0.2,6,0.3"/>
		<path class="st2" d="M18,255.6c107.6,5.3,225.1,6.3,351.1,0.1c103.6-5.1,200.8-14.4,290.8-26.3c1-0.1,1.9-0.2,2.9-0.3
			c7-0.6,36.8-4.3,54.6-30.6c2.2-3.2,4-6.5,5.4-9.7c10.4-22.7,5.8-49.4-10.8-67.9c-1.1-1.2-2.3-2.4-3.5-3.6
			c-23.2-22.4-53.1-21-58.5-20.7c-3.1,0.2-39.4,3.2-57.2,34.5c-0.3,0.6-0.6,1.1-0.9,1.7c-13,24.5-7.6,54.5,12.2,74
			c0.3,0.3,0.7,0.6,1,1c24.1,22.9,56.1,22.3,68.8,21c3.7-0.4,7.5-0.4,11.2-0.1c39,3.1,79.8,5.1,122.3,5.6
			c121.9,1.5,232.5-9.3,329.3-25.5"/>
		<path class="st1" d="M1142.4,207.7c2-0.3,3.9-0.7,5.9-1c-1.7,0-3.4,0-5.1,0"/>
	</g>
</g>
</svg>
