<svg xmlns="http://www.w3.org/2000/svg" viewBox="0 0 1228.33 1229.16"><defs><style>.cls-1{fill:none;stroke:currentColor;stroke-width:4;stroke-linejoin:round;stroke-linecap:round;}</style></defs><g id="Layer_2" data-name="Layer 2"><g id="Layer_1-2" data-name="Layer 1"><path class="cls-1" d="M1225.79,567c-4.54-1.13-4.53-4.85-5.36-8.52-3.07-13.45-6.54-26.8-10.85-40.18-4.14,22.27-5,45.14-13.08,66.26-7,18.39-6.65,35.59-.28,54.18,8,23.18,9.81,47.82,12.39,74.84,6.25-15,8.6-28.23,11.69-41.27.92-3.91.32-8.38,5.5-9.79.9,15.46-.21,30.7-4.84,45.57a2.07,2.07,0,0,1-2.42.72,5.45,5.45,0,0,0-.81-.86,6.54,6.54,0,0,0-1.09-.55c-.57,9.82-5.89,18.7-5.68,28.69-.74,3.94,0,7.94-.42,11.85-.45,4.51-.56,9.9-7.67,9-3.72-5-1.73-11.23-3.64-16.61,4.51-36.28-1.6-71.48-11.07-106.31-.6-2.19-.45-4.84-3.22-6.84-10,20.15-19.47,40.47-32.4,58.8-3.2,4.53-5.54,10.33-12.47,10.57-4.18-5.95.65-10,3.39-14.1,11.26-16.67,20.24-34.57,29.67-52.27,6.67-12.54,7.47-23.87,1.71-37.25-5.6-13-14.27-24.89-16.22-39.42a5.32,5.32,0,0,1,4.23-3.26c9,5.27,9,15.91,13.93,23.6,3.7,5.73,5.38,12.57,9.92,21.36a343.43,343.43,0,0,0,13.8-67.36c2.17-21.69-4.31-40.87-14.47-59.47-3-5.44-7.9-10.8-5-18.06,6-1.62,7.85,3.29,9.75,7,4.58,8.9,10.39,17.3,11.68,27.64.81,1.42,2.35-.92,1,.06-.34.26-.69,0-.86-.85-2.25-11.06-5.76-22-3.42-33.55,1-2.51,2.26-4.73,5-5.76C1217.19,484.54,1225.41,525.08,1225.79,567Z"/><path class="cls-1" d="M22.23,678.71c11.05,13.8,20.57,28.16,20.8,46.91.06,4.67,1.18,10.38,4,13.77,12.3,14.69,15,31.22,10.3,49-2.88,11,.46,20.64,3.73,30.58,9,27.28,18.45,54.42,26.6,81.95,2.63,8.91.69,19,3.63,28.18-.79,1-1.09,2.54-2.7,2.75a133.8,133.8,0,0,1-19.39-34.67c.79-1.68,1.73-3.15,3.85-3.22,3.39.4,4.89,3.49,6,4.36-8.24-37.84-25.94-74.11-33-113.59-.38-2.1-.21-4,1.6-5.51,3-.38,4.42,1.46,5.23,3.29C54.51,768.2,50.31,755,41.71,743a28.58,28.58,0,0,1-5-16.13c-.23-9.48-3.29-18.06-8.08-26.36-1.58,13.65.89,27,.79,40.37-3.76,12.58,3.15,25.09.24,37.66-.95,2.73-2.38,5.06-5.19,6.22-12.21-35-17.82-71.35-21.83-108-.57-5.21,2.42-9.3,2.71-14.1,5.2,1.1,5.27,5.62,6.1,9.45,2.64,12.18,7.36,23.9,7.28,36.62.36-9.8-.24-19.47.39-29.17A2,2,0,0,1,22.23,678.71Z"/><path class="cls-1" d="M96.94,420.53c-2.53,3.58-5.29,7-7.56,10.78-3.28,5.4-7.71,5.42-12.64,3.12-11-5.13-27.68-.9-31.76,10.91-8.09,23.39-24.18,43.28-28.45,68.3-1.14,6.7.72,14-3.4,20.19a2.35,2.35,0,0,1-3.5-.29c1.12-7.12,1.92-14.28,2.84-21.43,3.36-14.6,7.65-29,8.57-44.09-.85-1.71-2.72.09-1.2-.51.57-.23.92,0,.95.75.65,14.65-6.34,28-7.29,42.36-1.68,9.16-5.81,18.1-2.49,27.71,1.21,4.94-1,9.41-2.65,13.67-1.34,3.47-3.59,1.17-5-.89,2.87-36.26,9.29-71.81,21.11-106.29,2.59.93,3.77,3.1,4.78,5.42,2.15,6.9,1,13.54-1.45,20.23,6.43-20.22,14.07-39.55,35.76-48.39,5.45-.55,10,2.62,15.94,4,.23-8.75-1.71-16.91-2.49-25.16.54-14.17,2.22-28.22,4.1-42.22.83-6.17.43-13.18,6.71-17.4a5.27,5.27,0,0,1,4,.75c3.16,7.77-.34,15.23-1.12,22.81a107,107,0,0,0-.07,25.61c-3.13,10.84,1.11,22.46-2.62,32.81C90,421.41,92.39,417.51,96.94,420.53Z"/><path class="cls-1" d="M363.84,54.46C396,37.34,430.7,27.31,465.66,18.15c62.17-16.29,125.58-20.56,189.45-17,27.55,1.55,55.26,4.05,82,12a2.46,2.46,0,0,1-1,3.58C718.82,18.46,702.31,12.9,685.4,11,586.66-.43,491,11.86,398,46.6a104.64,104.64,0,0,0-14.2,7.12,21.49,21.49,0,0,1-5.68,1.75c-4.94-.06-9.28,4-14.5,2.22A2.21,2.21,0,0,1,363.84,54.46Z"/><path class="cls-1" d="M530.84,1224.24c-68.56-10.35-134.15-30.1-195.88-62-3.7-1.92-8.74-2.36-10.44-7.31,5.19-3.51,9.17.55,13.47,2.25,7.43,2.94,13.86,8.64,22.54,8.15,17.57,9.3,35.48,17.74,54.45,24,23.15,7.59,46.06,16,70.59,18.2a13.74,13.74,0,0,1,3.84.21c15.93,6.75,33.09,7.43,49.84,10.14,4.27.69,9.13-.18,11.83,4.58a4.89,4.89,0,0,1-3.18,4.59C541.72,1229.14,536.12,1227.66,530.84,1224.24Z"/><path class="cls-1" d="M904.15,1154.93c-13.08,11.25-29.33,16.51-44.68,23.34a561.23,561.23,0,0,1-144.54,42.62,3.68,3.68,0,0,1-.75-3.51c8.37-5.71,18.39-6.69,27.71-9.73,27.23-3.05,52.85-12.14,78.67-20.64,16.65-5.48,31.8-14,47.42-21.66,8.27.55,14.47-4.74,21.56-7.58C894.18,1155.91,898.4,1151.29,904.15,1154.93Z"/><path class="cls-1" d="M1203.87,757.3c8.52-5.79-1.08-15.43,4.64-21.81,5.71-8.22,3.8-19.3,10.26-27.23a12.42,12.42,0,0,0,2.19-.16c-4.71,37.89-14.44,74.55-27.24,110.45a6.66,6.66,0,0,1-3,1.67,5.46,5.46,0,0,1-4.67-1.86c1.53-7.85,5.79-15.71-.09-23.55C1197.71,785.08,1195.55,768.69,1203.87,757.3Z"/><path class="cls-1" d="M5.89,629.29V588c-4.44,25-2.15,49.88-.38,74.79-5.84-2.52-5-7.84-5-12.59C.16,617.11-1.33,584,3.35,551.11c8.32-1.1,3.92-8.85,6.72-12.84-1-1.65-1.34-3.19.65-4.39.8,0,1.61,0,2.41,0-4.21,31.75-6.76,63.61-5.25,95.68C7.12,630.27,6.46,630.2,5.89,629.29Z"/><path class="cls-1" d="M266.87,124.3c6.3-10,17.23-15.16,24.76-23.86.11-.13-.16-.74-.4-1a4.22,4.22,0,0,0-1.06-.54c-1.52-1.8-1.39-3.63-.13-5.5A8,8,0,0,1,297,89.69c2.78,1.29,5.89,1.73,8.56,3.33,1.31.85,2.52,1.84,3.82,2.71,3.56,3.45,11.28-5.26,12.73,4.32-10.36,9.85-21.83,17.92-36.59,18.69C278.61,119.1,274.77,128.39,266.87,124.3Z"/><path class="cls-1" d="M1139.63,878.68c5.51,4.28,2.43,9.57,1.1,14.13-2.17,7.42-.68,12.85,6.22,16.57,2.27,3.93,2.14,3.89,1.72,5.26-1.37,4.43-6.74,7-5.94,12.42a24.55,24.55,0,0,1-7.92,13.18c-2-4.48,3.29-7.31,2.56-11.49-1.81-1.2-3-3-4.54-4.48-4.26-2.68-6.16,4.7-10.32,2.44-1.41-6.21,4.34-9,6.45-13.59,3.46-7.5,3.94-15.49,3.91-23.55C1132.85,884.45,1133.23,879.74,1139.63,878.68Z"/><path class="cls-1" d="M761.48,18.59c21.2,4.35,41.94,10.23,61.79,19,.77,3.12,1.1,6.07-2.91,7.3-6.25,1.35-12.46,1.82-18.52-.82a3.76,3.76,0,0,1-1.64-3c1.74-3.67,5.13-3,8.24-3.12-9.41-1.26-18-5.38-27-7.95-5.16-1.47-10.17-2.81-14.71,1.44-2.85,1.2-5.52,1.24-7.75-1.29C759.41,26.2,756.55,21.56,761.48,18.59Z"/><path class="cls-1" d="M304.14,1136c-7,1-11.54-7.33-18.89-5-13.37-2.22-22-12-31.89-19.84a4.53,4.53,0,0,1-.52-5.28c2.38-1.5,4.83-.91,6.94.29,13.07,7.44,26.07,15,39.35,22C302,1129.75,304.36,1132.15,304.14,1136Z"/><path class="cls-1" d="M1225.65,662.77c-2.66-6.13-2.32-12.3-1.43-18.86a216.93,216.93,0,0,0,0-58.32c-.9-6.61-.69-12.69,1.49-18.84,3.27,4.67,2.58,10.07,2.6,15.26q.15,34,0,68C1228.22,654.35,1228.71,659,1225.65,662.77Z"/><path class="cls-1" d="M307.43,96.7l-2.2-1.79c0-8.22,5-11.48,12.4-12.27,8.26-1.24,6.95-14.09,16.58-13.67a5.83,5.83,0,0,1,2.47,4.37c1.49,7.53-7.81,8.42-8.8,14.4.42,2.63,1.37,5.35-1.26,7.44C319.93,92,314.2,101,307.43,96.7Z"/><path class="cls-1" d="M961.92,109c-9.46.19-15.73-8.37-26.3-9.83l6.58,7.68c-11,2.56-15.85-5.51-21.28-12.48-.48-3.09,2.36-4.36,3.58-6.52a3.58,3.58,0,0,1,2.24-1.67C939.2,92.69,951.41,99.56,961.92,109Z"/><path class="cls-1" d="M78.34,324.2A10.4,10.4,0,0,1,80.42,323c4.29,1,3.51,4.61,2.18,6.55-6,8.78-9.5,19.53-19.06,25.7-2.26.08-3.3-1.4-4.13-3.17,3.83-8.23,7.73-16.42,11.46-24.7,1.35-3,3.08-4.56,6.44-3.18Z"/><path class="cls-1" d="M879.26,60.46a184.27,184.27,0,0,1,30.06,15.29A5,5,0,0,1,910,79.3a6.94,6.94,0,0,1-3.74,3.86,52,52,0,0,1-30.27-17C875.41,63.27,876.71,61.51,879.26,60.46Z"/><path class="cls-1" d="M58.24,875.2C46.56,853.12,37.93,829.82,30.53,806c.74-1.94,1.85-3.23,4.18-2.32,10.08,22.13,17.84,45.23,27.74,67.44a4.52,4.52,0,0,1-.82,4.58A2.63,2.63,0,0,1,58.24,875.2Z"/><path class="cls-1" d="M1148,322.92l3-.28-.28-.13c12.12,6.11,13.27,19.09,18.49,29.53-.83,1.71-1.82,3.21-4.06,3.06-8.75-6-12.45-15.89-18.47-24C1144.92,328.66,1143.69,325,1148,322.92Z"/><path class="cls-1" d="M668.36,1225.82c-27.7,5.36-55.63,2.75-83.49,2.4a2.58,2.58,0,0,1,1.23-3.55c8.22-3.3,16.82-1.6,25.27-1.93,2.13,0,4.26,0,6.4,0,16.46,1.43,32.85-3.16,49.32-.53A2.65,2.65,0,0,1,668.36,1225.82Z"/><path class="cls-1" d="M1142.73,927.06c-4.26-2.53-.47-4.5.49-6.61,1.63-3.57,6.6-6,3.73-11.07,2.78-8.83,10.35-14.88,13.42-23.74,1.37-3.92,3.08.55,4.43,1.73C1157.27,900.51,1151.9,914.84,1142.73,927.06Z"/><path class="cls-1" d="M1179.18,374c8.28,15.76,13.9,32.55,19.08,49.51-.78,1.75-1.74,3.21-4,2.54-9.29-14.9-12.49-32.15-18.61-48.29A4.57,4.57,0,0,1,1179.18,374Z"/><path class="cls-1" d="M32.91,416.14C38.07,400,43.4,383.84,51.8,369a4.74,4.74,0,0,1,3.67,3.65c-5.88,15.47-9.95,31.68-18.54,46.07C34.64,419.34,33.65,417.94,32.91,416.14Z"/><path class="cls-1" d="M88.61,931.83l2.7-2.75c8.13,14,18.75,26.54,24.68,41.83C103.74,960.08,96.77,945.53,88.61,931.83Z"/><path class="cls-1" d="M334.38,74.46c-.06-1.83-.11-3.66-.17-5.49,9.42-5.77,19.05-11.11,29.63-14.51-.06.87-.11,1.75-.16,2.62-1,8.16-11.49,7.55-13.62,14.7A6.84,6.84,0,0,1,347.6,74C343.22,75.08,338.9,78.06,334.38,74.46Z"/><path class="cls-1" d="M1093.61,231.19c6.7,7.75,15.14,14.31,17.21,25.22l-.72-.26c-2.16,1.14-4.55-.51-6.73.59-6.55-6.22-12.46-12.8-13.55-22.32A5.17,5.17,0,0,1,1093.61,231.19Z"/><path class="cls-1" d="M1190.71,819l3-.47c-4.88,16.19-10.46,32.1-19.07,46.78-4,1.26-4-1.47-4-4.09,4.44-10.87,9.6-21.45,13-32.73C1184.88,824.55,1186.78,821,1190.71,819Z"/><path class="cls-1" d="M761.48,18.59c-6.26,2,8.4,7.91-1.72,9.2-8.84-1.69-18-2.67-23.26-11.57.2-1,.41-2,.61-3Z"/><path class="cls-1" d="M668.36,1225.82c0-.58,0-1.17,0-1.76,14.79-8.12,30.27-10.48,46.61-5.53a23.28,23.28,0,0,0,0,2.36C699.45,1223,684.19,1227.11,668.36,1225.82Z"/><path class="cls-1" d="M117.89,256.4c1.26-10,9.06-15.6,15-22.49a5.08,5.08,0,0,1,3.88,3.13c0,8.76-5.56,14.28-11.35,19.68-2.2-1-4.62.57-6.82-.55Z"/><path class="cls-1" d="M879.26,60.46q-1.12,2.45-2.27,4.9c-10.62,1.31-18.13-4.33-25.06-11.25-.19-2.23,1.25-3.24,3-4Z"/><path class="cls-1" d="M854.93,50.1l-2.81,2.66C840.75,54.1,832,48,823.14,42.4c-.53-1.62-3.43-3.3.13-4.82Z"/><path class="cls-1" d="M938.39,1136.65c-3.91.33,5.45-7.45-2.69-4.43-3.6,1.34-7.08,3-10.61,4.59,3.28-10.1,12.15-15.7,26-16.41,3.25,6.07-4,7.42-5.16,11.51Z"/><path class="cls-1" d="M945.93,1131.91l4.82-11.24c2-8.14,2.11-17.5,12.52-20.55.4,3.45.86,6.42-2.38,9.53-2.84,2.74-3.94,7.25,0,10.86C957.39,1126.26,951.13,1128.39,945.93,1131.91Z"/><path class="cls-1" d="M1093.07,997.91c5-12,14.2-21.06,22.24-30.92C1111.61,980,1102.89,989.33,1093.07,997.91Z"/><path class="cls-1" d="M32.91,416.14l2.2,2.5c3.7,12.05-1.5,21.94-7.64,31.61-2.39-1-2.29-3.46-3-5.43Q28.69,430.48,32.91,416.14Z"/><path class="cls-1" d="M135.83,236.85a3.27,3.27,0,0,1-3-2.94c5.81-8,11.57-16,19.07-22.47a3.3,3.3,0,0,1,2.15,2.41C150.4,223.43,145.2,231.79,135.83,236.85Z"/><path class="cls-1" d="M572.59,1228.72l-24.41-3,2.57-2.19c12-5.9,23.31-4.79,34.12,2.86v1.8Z"/><path class="cls-1" d="M1172,860c-.49,2.48,0,4.45,2.67,5.37l-5.51,14.36c-9.08-7.43.27-14.56.36-21.84a2.42,2.42,0,0,1,2.58-.31A1.73,1.73,0,0,1,1172,860Z"/><path class="cls-1" d="M180.72,182.47c-.29,3.47,3,1.17,4,2.46-.21,9.23-7.35,11.07-14.15,13.29a4.66,4.66,0,0,1-3.56-3.66C170.66,189.48,173.64,183.66,180.72,182.47Z"/><path class="cls-1" d="M1044,184.93c1.07-1.21,4.3,1,4-2.45,7.18,1.05,10,7.09,13.76,12.05a4.76,4.76,0,0,1-3.54,3.68C1051.31,196,1044.16,194.17,1044,184.93Z"/><path class="cls-1" d="M241.23,127.41c-5.52,10.43-16,15.3-24.79,22C221.58,138.59,232.13,133.82,241.23,127.41Z"/><path class="cls-1" d="M1195.68,426.29l2.58-2.78,5.94,21.33-3,5.38C1193.36,443.65,1192.69,435.4,1195.68,426.29Z"/><path class="cls-1" d="M290,93.42c0,1.84.08,3.67.13,5.5L268,110.29C272.27,100.64,282.45,98.72,290,93.42Z"/><path class="cls-1" d="M147.73,1012.46c8.41,6.23,16.25,12.94,19.84,23.28C160.17,1028.65,151.53,1022.62,147.73,1012.46Z"/><path class="cls-1" d="M1012,1081.38c6.15-8.49,13.06-16.1,23.27-19.83C1028.35,1069.1,1022.1,1077.49,1012,1081.38Z"/><path class="cls-1" d="M194.36,1060.37c8.27,6.11,16.65,12.1,22.29,21C206.89,1076.84,199.17,1070.15,194.36,1060.37Z"/><path class="cls-1" d="M1179.18,374l-2,2.42c-6.05-5.92-11.55-12.11-10.79-21.46l2.93-2.92Q1174.23,363,1179.18,374Z"/><path class="cls-1" d="M32.7,803.46,30.53,806q-3-10.65-6.08-21.29c.69-1.93.51-4.34,2.9-5.37C34.44,786.22,35.66,794.38,32.7,803.46Z"/><path class="cls-1" d="M1093.61,231.19l-2.73,2.91a33.61,33.61,0,0,1-16.3-20.36,3.21,3.21,0,0,1,2.18-2.34C1083.33,217.18,1088.53,224.14,1093.61,231.19Z"/><path class="cls-1" d="M1136.24,290.74c-9.87-4.25-11.66-14.82-17.43-22.28C1128.9,272.54,1130.71,283.09,1136.24,290.74Z"/><path class="cls-1" d="M1034.36,168.93c-7.81-5.33-15.94-10.33-19.88-19.59C1022.34,154.62,1030.23,159.87,1034.36,168.93Z"/><path class="cls-1" d="M58.24,875.2l3.5-.1c6.74,4.58,11.28,10.37,10.53,19.09l-3,3Z"/><path class="cls-1" d="M215,150.57a87,87,0,0,1-20.63,18.54C198.71,160.15,205.27,153.61,215,150.57Z"/><path class="cls-1" d="M1058.57,197.62l3.1-3.09c5.66,5.06,11,10.39,15.09,16.87l-1.44,1.24A24.6,24.6,0,0,1,1058.57,197.62Z"/><path class="cls-1" d="M1062.34,1032.29c5.16-7.59,10.5-15,18.6-19.82C1077.06,1021.25,1071.43,1028.39,1062.34,1032.29Z"/><path class="cls-1" d="M904,1155.09c6.39-6.25,13.7-10.81,22.62-12.48C920.16,1148.7,913,1153.47,904,1155.09Z"/><path class="cls-1" d="M301.16,1142.62c9.29,1.4,16.92,6,23.49,12.47C315.45,1153.51,308.23,1148.2,301.16,1142.62Z"/><path class="cls-1" d="M167,194.56l2.74,2.42c-3,7.8-8.07,13.47-16.41,15.7a9.43,9.43,0,0,0-1.43-1.24C155.9,204.87,161.36,199.63,167,194.56Z"/><path class="cls-1" d="M1150.78,322.51l.28.13c-2-7.15-9-12.14-8.91-20.22C1146.71,308.39,1154.34,313.05,1150.78,322.51Z"/><path class="cls-1" d="M253.11,1106.34c.08,1.61.17,3.21.25,4.82-4.51-3.15-9.55-5.64-12.94-10.22.92-2.42,3.07-2.63,5.19-2.89a3.23,3.23,0,0,1,3.11-.29C251.33,1100,253.16,1102.71,253.11,1106.34Z"/><path class="cls-1" d="M78.34,324.2l-1,0c-2.71-9.87,4.4-15.76,9.17-22.61C87.76,310.54,77.87,315.51,78.34,324.2Z"/><path class="cls-1" d="M53.89,371.46,51.8,369q3.81-8.44,7.61-16.91l3,2.95C63.9,362.72,59.34,367.32,53.89,371.46Z"/><path class="cls-1" d="M115.8,970.69c7.2,3.72,9.12,11.55,13.52,17.44C121.6,984.81,118,978.29,115.8,970.69Z"/><path class="cls-1" d="M1013.33,148.35c-8-.91-12.28-6.69-16.54-12.51C1004.33,137.32,1008.58,143.16,1013.33,148.35Z"/><path class="cls-1" d="M908.66,79.32l.66-3.56,17.42,10.45c-.41.5-.85,1-1.31,1.44-5.64,1.85-9.6-2-14.07-4.13A6.7,6.7,0,0,1,908.66,79.32Z"/><path class="cls-1" d="M317.32,82c-6.12-.77-9.5,5.25-15,6,2.35-7,9.61-7.6,14.68-11,.44-.3,1.71.63,2.6,1Z"/><path class="cls-1" d="M1080.79,1012.64a24,24,0,0,1,12.43-14.91A23.47,23.47,0,0,1,1080.79,1012.64Z"/><path class="cls-1" d="M134.18,997.73c7.88,1.92,11,8.24,13.71,14.91C141.07,1009.74,138.08,1003.32,134.18,997.73Z"/><path class="cls-1" d="M216.47,1081.22c7.25,1.72,11.45,7.37,16.1,12.45C224.85,1092.57,220.15,1087.55,216.47,1081.22Z"/><path class="cls-1" d="M997.28,1094.86c2.05-7.74,8.32-10.88,14.92-13.64C1009.24,1088,1003,1091.17,997.28,1094.86Z"/><path class="cls-1" d="M307.83,1032.18c-.45-10.91-.69-21.84-1.4-32.74S291.68,981.22,282.6,987c-6.46,4.12-14.05,5-20.64,8.45.79-2.7,1.16-5.94,4.56-6.59,15.74-3,28.87-13.93,45.79-14,6.8,0,13.57-4.3,20.35-6.64-3.59,6.3-10.44,7-16.28,9.35-2.8,1.14-6.62.44-6.62,5.39,0,4.11,1,6.52,5.23,8.21a767.72,767.72,0,0,0,130.63,38.51c7.57,1.54,9-1.62,8.84-8.27-.48-26.91.65-53.79,2.57-80.63.46-6.44-.68-13.08,2.09-19.27a3,3,0,0,1,4,.76c2.09,3.28,1.88,6.89,1.67,10.57-1.54,27.83-2.86,55.67-4.11,83.51-.82,9.73,4.09,13.66,13.39,15.12,29.51,4.6,59.09,8.28,89,9.49,6.12.25,12.39.14,17,5.28a3.39,3.39,0,0,1-.45,3.94c-4.33,3.07-9.27,2.81-14.14,2.34-29.6-2.87-59.3-4.75-88.64-10-14.8-2.64-16.52-1.32-15.87,14.08q1.21,29.26,3.85,58.48c.79,8.85,5.32,12.75,13.84,14,19,2.82,37.91,5.55,57,7.48,4.78.48,10-.18,13.22,4.67a5.84,5.84,0,0,1-.31,4.07c-3.91,3.35-8.42,2.15-12.85,1.71-18.67-1.84-37.29-4-55.79-7.24-11.72-2-12.33-1.33-10.57,9.92,6.06,38.69,6.91,39.58,45.6,45.23,19.37,2.84,38.86,4.46,58.39,5.66,4.06.24,8.22.11,11.57,3,.22,6.47-5.12,5.06-8.7,6.15-25.68.69-51-2.94-76.29-6.69-5.18-.77-10.77-2.62-12.54,5a6.81,6.81,0,0,1-1.53,1.25c-23.46-19-53.79-18.09-80.48-27.78-15.94-5.79-32.21-10.69-48.11-16.64l-17.93-12.57a5.12,5.12,0,0,1,3.8-3.81,8.43,8.43,0,0,1,3.7.29c37.92,19,78.72,28.83,122.69,38.76-6.71-16.29-8.84-31.47-12.61-46.27-1.56-6.16-7.38-6.79-12.41-8.55-5.4-1.9-12.83,0-15.44-7.63a4.07,4.07,0,0,1,1.83-3.2c4.07-1.61,8.18-.69,12.05.37,9.29,2.55,11.83-1.57,10.9-10a456.53,456.53,0,0,1-2.51-63.6c.27-8.86-4.52-12.23-12.41-13.59-23-4-45.22-11.07-67.71-17.05-18.92-6.26-37.69-12.94-57-19.95-3.07,11.47,1.38,22.78-3.12,33.14A2.35,2.35,0,0,1,307.83,1032.18Z"/><path class="cls-1" d="M461.75,921.7l-2.63-.19c1.56-9.59-1.48-13.64-12.11-15.75a628.39,628.39,0,0,1-71.84-18.67c-12.28-4-23.21,2.77-34.79.33-3.53-.75-7.57.4-10.88-.76-6.74-2.34-11.28-3-13.53,5.93s1,11.83,9.06,12.7c13.25,1.44,26.3,5.22,39.7,4.5,7.77-.41,9.32,1.76,7.29,9.09-2.2,7.93-5,15.28-10.66,21.36-.58-6.51,3.75-11.21,6-16.7s3.88-9.24-6.07-9.84c-17.24-1-34.33-5-51.4-8.2-8.41-1.57-11-8.48-12.42-15.94,5-1.63,6.3,4.23,10.11,5.11-1.16-7-1.16-7-10-4.94-1.29-.65-2.81-1.07-3.82-2-1.32-1.25-1.24-2.58.76-3.47,6.24-2.79-.41-5.68,0-8.52l.33-1.63c4.29-9.49-5.15-14.38-7.27-21.72a13.86,13.86,0,0,1,2.71-2.18c6.73-4,5.07-10,2.73-15.13-6.05-13.36-7.54-28.19-15-41.24-6.57-11.46.38-24.84-1.79-37.26a3.93,3.93,0,0,1,2.49-2.52c5.78,7,4.91,15.34,3.77,23.36-.65,4.58-1.8,9.71.8,13,9.41,12,8.14,27.85,15.48,40.61s-.64,27.18,3.47,40.6c1.17,3.85.16,9.11,5.15,9.64,25.76,2.75,51.55,4.42,77.12-1.79.36-.09.64-.5,1-.75a3.88,3.88,0,0,1,1.79,3c.24,1.48-1.54,3.55-1.27,3.58,18.94,2.5,36.92,9.16,55.61,12.79,7.75,1.5,14.38,3.46,16.62-7.18a5.22,5.22,0,0,1,6.58-4c2.77,2.93,2.67,6.56,2.56,10.19-2.44,7.07,5.52,6.53,7.57,10.31a4.49,4.49,0,0,1-2.66,3.81C466.12,912.06,465.48,918.45,461.75,921.7Z"/><path class="cls-1" d="M174.88,550.88c1.22,3.78-1.75,6.09-3.26,8.8-5.84,10.48-2.73,35.3,5.45,43.28,2.55,2.49,4,1.38,5.8-.86,2-2.56,1.12-8,6.78-7-1.18,2.94-1.74,6.38-3.66,8.72-4.51,5.48-10.74,6.91-12.82-1.11-3-11.38-13.06-20.63-9-34.43,1.51-5.18-3.13-11.44-6.18-16.81-8.17-14.36-6.59-21.41,3.88-33.35,5.27-6,9.3-13.74,7.32-22.73a2.28,2.28,0,0,1,2.6-1.54c6.84,5.52,8.4,11.55,1.82,18.41-3.39,3.54-5.37,8.08-8.7,11.73-6.84,7.5-6.43,19.75-.13,27.83C169,557.25,171.22,547.56,174.88,550.88Z"/><path class="cls-1" d="M265.74,696.92l.6,5.34a6.3,6.3,0,0,1-2,3.19c-5.85,3.82-5.69,9.81-4.39,15.28,3.75,15.74,2.77,32,7.34,47.87,3.37,11.72-.83,24.8-1.76,37.28a6.74,6.74,0,0,1-2.37,3.1c-7.69-8.39-5.83-18.31-3.5-27.69,1.88-7.61-.26-14-1.65-21.25-3.23-16.82-4.57-34-6.31-51.1-.62-6-.2-12.17-.26-18.26,4.5-1.34,1.46,5,4.9,4.78C258.76,700.36,261.79,701.61,265.74,696.92Z"/><path class="cls-1" d="M105.35,418.22c15.12,2.78,23.66-5.6,20.88-20.32-2.07-11,7.12-15.24,13.09-21.39-1,2.62-1.46,5.64-3.06,7.81-10.24,13.8-9.25,27.74-1.61,42.27,2.61,5,6.95,4.88,10.93,4.57,3.15-.24,6.16-1.79,9.33-.08-.89,9.54-8.09,13.54-15.34,17.48a3,3,0,0,1-2.67-1.77c3.82-8.5-3.4-12.16-8.49-17.62-.41,4.34.7,8.63-1,12.49a3.9,3.9,0,0,1-2.57,2,62.33,62.33,0,0,1-3.68-22.51C115.83,421.32,108.79,427.17,105.35,418.22Z"/><path class="cls-1" d="M263.09,1031.52c13.68,10.84,13.64,28.07,19.8,42.42-2.21,7-7.67,7.82-13.67,6.81s-11.74-2.33-17.94-2c4.44,5.21,10.67,10,8.18,17.67-2,6.09-7.33,3-11.51,2.38l-2.34-.73c-1-2.59-4.74-3.33-4.53-6.85,4.06-2.89,7.36,1.75,13,.9-4.14-4.94-7.77-9-11.09-13.32-3.51-4.54-3.09-7.28,3.55-7.41,7.4-.15,14.66.32,21.71,2.68,8,2.67,10.28,1.22,8.21-8C273.69,1053.77,266.87,1043.29,263.09,1031.52Z"/><path class="cls-1" d="M231.17,643.57c4.36,2.36,7.9,9.46,13.92,2.45a10,10,0,0,1,3.33.67c1.09.53,2.39,1,3.07,1.91,8.64,12,18.7,18.66,33.27,9.24-6.11,9.67-14.17,18.5-12.32,31.46.21,1.51-2.88,3.49-4.44,5.25,4.45-13,1.28-22-10.69-30.49-7.1-5-11.27-13.44-22-12.83C232.67,651.38,230.26,647.44,231.17,643.57Z"/><path class="cls-1" d="M169.15,495.35c-11.07-2.2-12.35-13.72-16.42-20.68-7.41-12.65-17-22.05-27.85-31,.55-.52,1.09-1.06,1.61-1.61,5-1.64,7.68,1.95,10.67,4.82a16.57,16.57,0,0,0,1.6,1.42c13.3,6.56,16.44,21.27,25,31.64,3.1,3.76,6.5,8.26,6.84,13.81C170.11,494.28,169.62,494.81,169.15,495.35Z"/><path class="cls-1" d="M5.89,629.29a4.8,4.8,0,0,1,2,.22q7.17,24.6,14.35,49.2l-3.64,0C14.68,662.13,7.56,646.41,5.89,629.29Z"/><path class="cls-1" d="M189.45,595.19c8.83-6.93,13.2.67,16.53,6.22,4.84,8.06,8,17.11,11.92,25.73-6.91-4.29-10.72-11.22-12.76-18.41C202.71,600.15,198,595.82,189.45,595.19Z"/><path class="cls-1" d="M263.11,809c.22-1.34.45-2.67.67-4,6.42,1.45,8,6.91,8.76,12,1.15,8.09,3.52,15.93,4.41,24a3.23,3.23,0,0,1-2.49,2.65c-7.24-5.78-5.92-14.4-7.48-22.13C266.12,817.29,264.43,813.17,263.11,809Z"/><path class="cls-1" d="M256.29,695.46l-1.58,2.8c-.41-.84-.87-1.65-1.24-2.51-.72-1.68-1.39-3.38-2.08-5.07.1-4.7-.67-9.53,3.61-16.48C255.53,682.91,255.91,689.18,256.29,695.46Z"/><path class="cls-1" d="M291.3,852.53l-3.48.39c-1,1.09-.81,2.49-1,3.78a2.71,2.71,0,0,1-2,1.61l-10.35-14.6a3.55,3.55,0,0,0,1.61-1.48C282.5,843.67,288.3,846,291.3,852.53Z"/><path class="cls-1" d="M354.15,947.41c-.92,9.27-8.16,13.09-14.93,17.31C341.75,956.84,349.11,953.13,354.15,947.41Z"/><path class="cls-1" d="M294.56,875.72a43.86,43.86,0,0,1-9.75-17.41,3.53,3.53,0,0,1,1.37-.92c8.21,2.9,10.3,9.18,9.45,17.08A14.11,14.11,0,0,0,294.56,875.72Z"/><path class="cls-1" d="M1044,1015c6.57-8.94,16.26-14.21,24.71-20.94-.69,8.26-6.43,13.92-11.61,19-9.37,9.26-14.84,21.75-25.54,29.76-3.3-5,.49-8.14,3.09-11.47C1038.54,1026.38,1042.32,1021.31,1044,1015Z"/><path class="cls-1" d="M1107.8,948.8c4.4-7.79,6.27-17.27,14.86-22.26C1122.6,937.23,1114.38,942.47,1107.8,948.8Z"/><path class="cls-1" d="M1078.33,984.44c.83-10.82,11.16-10.14,17.41-14.4C1094,979.8,1082.46,977.61,1078.33,984.44Z"/><path class="cls-1" d="M1026.88,1039.41c.7,1.84.16,4.45,3,5-3.33,4.65-6.82,9.09-13,10Z"/><path class="cls-1" d="M964.63,1098.66c3.34-7,6.92-13.72,15.7-15C976.09,1089.68,971.34,1095.2,964.63,1098.66Z"/><path class="cls-1" d="M1098,967.26c.35-7.8,3.82-13.93,10-18.64C1107.37,956.3,1102.56,961.72,1098,967.26Z"/><path class="cls-1" d="M1002.16,1067.71c2.42-7.34,8.17-11,14.94-13.5C1014.1,1060.91,1008,1064.17,1002.16,1067.71Z"/><path class="cls-1" d="M980.09,1083.83c3.72-5.87,8.08-11,15.34-12.47C991.55,1077,987.36,1082.32,980.09,1083.83Z"/><path class="cls-1" d="M1134.76,506.12c12.09,13,19.28,29,27.23,44.59l-2,2.53C1152.8,536.89,1140.63,523.19,1134.76,506.12Z"/><path class="cls-1" d="M88.49,342.1c.07-10.56,4.91-20.06,7-30.72l-6.74,5q12.33-21.5,24.68-43c2.66,2.43,1.8,5.37,1.19,8,6.31-3.53,8.74-14.12,19.19-10.67-.21,2.82-2.48,4.17-4.39,5.46C106,292,95.68,315.46,91,342.2Z"/><path class="cls-1" d="M948.33,140.5c8.11.07,15.69,3,22.87,6,9.78,4.08,6.87-2,6.41-6.64,8,7.73,15.48,16.2,26,20.76-9.21.46-2.52,5.15-2.16,8.15-1.57.55-3.5,1-4.6-.2-11.93-12.66-28.19-16.23-43.84-21.1a10.85,10.85,0,0,1-4.92-3.36A3.19,3.19,0,0,1,948.33,140.5Z"/><path class="cls-1" d="M1044.1,185.18a109.82,109.82,0,0,1-27.68-17.4C1027.44,170.73,1037.13,175.78,1044.1,185.18Z"/><path class="cls-1" d="M958.22,122.4c-6.08-3.83-12.62-7.17-15-14.79C949.37,111.41,955.88,114.79,958.22,122.4Z"/><path class="cls-1" d="M252.22,140.78l-3.82,8.05c30.29-9.05,59.62-17.37,90.35-18.1,3.06-1.07,3.54.58,3.24,3.07-6.77,4.62-14.87,3.89-22.38,5.09A432.21,432.21,0,0,0,267,150.35c-11.72,3.41-23.68,6.57-32.2,16.46a7.06,7.06,0,0,1-6.61,2.45c-3.54-1.71,7.55-7.2-1.91-7.39Z"/><path class="cls-1" d="M212.22,167.78a106.78,106.78,0,0,1-27.64,17.39C191.52,175.76,201.21,170.71,212.22,167.78Z"/><path class="cls-1" d="M380.42,52.5c-8.18,15.75-24.65,21-38.14,30-2.08.87-3-.3-3.64-2,1-5.62,6.37-5.51,10.06-7.61l.48-2.72c9.33-6.09,18.75-12,28.38-17.63Z"/><path class="cls-1" d="M1166.94,817.43c-6.79,10.71-13.76,21.28-17.68,33.58-2.11,6.6-9.13,6.92-14.4,9.35-1.5-1.41-.91-3.46-1.43-5.38-2.26,3.29-2.86,6.46-.87,9.83,4.86,2.22,8.32-3.72,13.06-2.24-2.07,5.39,1.6,12.86-5.91,16.27-2.25-3.66,2.69-6.56.6-11.49-7.25,16.75-13.87-.24-21.2.13a55.24,55.24,0,0,0-6,.27c-5.37,3.16-10.52,5.66-11.53-3.93,11-3.52,18.8-11.41,26.79-19.3,6.09-6,10-13.61,16.23-19.44a3.29,3.29,0,0,1,3.19.59l2.53.1c-2.34,5.56-4.44,11.16-2.6,17.7C1154.33,834.75,1155.08,821.92,1166.94,817.43Z"/><path class="cls-1" d="M1149.4,858.69c3.41-4.1,4.81-13.62,12.64-2.74,2.69,3.75,5.45-5.08,9.7-5.54,2.12,2.72,2.21,5.31-.52,7.71l-.9.13-.82-.4c-9.17,2.81-9.24,13.84-16.69,18.58-2-5,1.84-8.34,3.17-12.26.89-2.63,2.79-5.75,0-7.58C1154.76,855.8,1151.65,857.9,1149.4,858.69Z"/><path class="cls-1" d="M123.65,257.07c-3,5.75-4.36,12.56-10.25,16.53-1.06-6.63,6.55-10.7,5.16-17.43C120.39,255.7,122.45,254,123.65,257.07Z"/><path class="cls-1" d="M1094.7,270.67c10.93,2.55,15.63,13.05,24.66,19,.24-6.4-4.72-10.72-5.9-16.27a2,2,0,0,1,3.12-.13c7.48,14.42,13,30,24.55,42-3.53,1.58-4.57-2.25-8-3.57a310.62,310.62,0,0,1,14.32,83.34c.09,3.07,1.47,6.09,2.25,9.14-5.26,11.13-3.46,23.4-5.62,35-3.1,16.71-6.81,33.25-12.6,49.25-1.31,3.63-2.35,6.93.48,10.21-6,1.75-7,7.31-9.22,12-10.56,21.79-20.67,43.86-37.71,61.7-3.42-7,1.93-11.56,5.14-16.37,13.57-20.38,25.46-41.58,33-65,9.12-26.51,16.64-53.29,16.06-81.77-.12-5.69-.87-11.25-1.27-16.88,3.27-29.21-3.67-56.82-13.78-83.77-3.67-9.81-13.2-15.37-19.88-23C1100.39,281.06,1094.32,277.92,1094.7,270.67Z"/><path class="cls-1" d="M1116.58,273.26l-3.12.13-8.41-16.32c1.16-3.2,3.25-1.27,5-.92C1109.4,262.94,1115.05,267.32,1116.58,273.26Z"/><path class="cls-1" d="M315.86,1142.6c9.08.44,16.74,4.23,23.61,9.92C330.45,1151.94,323,1147.58,315.86,1142.6Z"/><path class="cls-1" d="M871.42,1164.9c-2.14-4.73-4.72-.89-6.8-.14-34.32,12.42-69.19,23-105.13,29.34-10,1.75-9,13.38-17.54,15-.89-4.55,4.86-6.37,4.41-11.71-31.49,4.24-62.74,10.32-94.61,9.52-3.25.48-7.12,2.89-8.36-2.74,12.9-6.46,27.14-4.14,40.71-5.63,17.91-2,35.66-4.79,53.49-7.17,7.28-1,11.77-4.77,14.17-11.71A217.38,217.38,0,0,0,760,1146.3c1.15-6.53-.24-8.6-7.62-7.11-20,4.07-40.43,6-60.78,8.07-3.68.38-7.34.89-10.71-1.29a4.82,4.82,0,0,1-1.28-3.83c2.52-5.7,7.87-5,12.59-5.39,19.47-1.67,38.76-4.75,58.09-7.56,8.6-1.24,12.75-5.27,13.74-14,.92-8.12,1.34-16.21,1.49-24.36.13-6.54.4-13.08,4.56-18.65a3.75,3.75,0,0,1,3.59-1.25c5.46,5.87,3.23,13,3.19,19.8,0,3.25-1,6.44-1.39,9.68-2.74,22.19-2.73,22.18,18.6,21a9.58,9.58,0,0,1,3.58.65,3.8,3.8,0,0,1,2,3c-2.16,7.79-9.38,7.2-14.94,8.1-9.12,1.49-13.54,6.24-14.75,15.15-1.71,12.53-5.6,24.6-9.36,38.9,43.12-8.75,83.89-20.2,122.67-38.33a4.38,4.38,0,0,1,3.42,1.25c9.53,1.14,15.84-8.77,25.43-7.42-4.31,5.33-10.88,7.14-16.75,9C886.34,1154.54,879.67,1161,871.42,1164.9Z"/><path class="cls-1" d="M773.82,46.27l27.25-5.44a5.82,5.82,0,0,1-.11,2L783.7,48.22C793.93,64.75,812.91,70.1,826.87,82c-5.84,1.93-10.33.69-15.39-3.5-12-9.92-22.53-21.71-36.61-29C774.15,49.13,774.15,47.38,773.82,46.27Z"/><path class="cls-1" d="M322,99.17c2.36-.4,3.66-2,4.71-4l-2.25-8c3.78-5.1,9.35-6.39,15.17-7.15l2.65,2.47-9.43,13.29c4.47,2.47,7.46-2.9,11.5-1.61C338.17,101.45,330.41,101.78,322,99.17Z"/><path class="cls-1" d="M911.3,81.62c1,5.6,9.26,4.3,9.9,10.28l-36.57-5.31c-.21-4.63,2.49-3.3,5-2.42A117.74,117.74,0,0,1,905.9,86c4.11.64,0-2,.16-3.19.87-1.18,1.74-2.35,2.6-3.53Z"/><path class="cls-1" d="M643.88,1204.47c2.1,2.54,5.21,1.71,7.86,2.4-6,3.26-12.5,1.94-18.79,2.12-16.48.45-16.48.3-15.92,17l-5.37,0c.52-16.73.51-16.57-15.92-17-7.12-.19-14.43,1-21.3-2,3.37-1.14,7.4.55,10.33-2.44,3.53-4.48,8.7-3.93,13.43-4,7.27-.15,10.07-3.74,10-10.67-.07-8.11.1-16.22,0-24.33-.17-12.88-1.18-13.87-13.8-14.2-4.86-.13-9.74.21-14.59-.27-3.95-.4-8.31-.29-10.14-5.09,2.57-4.36,7.42-4.24,11.39-5.87,1.61-.23-.45-.1,1.18-.27,25.88-2.73,25.88-2.73,25.89-28.76,0-15.41-.09-30.83,0-46.24,0-5.23-.39-10.62,2.91-15.26a5.11,5.11,0,0,1,6.26-.33c3.78,4.94,3.11,10.79,3.15,16.42.16,19.91.27,39.84,0,59.75-.14,9.85,3.68,14.22,13.67,13.64,6.05-.34,12.2-.42,18.18,1.26,2.89,1,5.36,2.49,6.72,5.36-4.66,8.43-12.86,5.27-19.65,5.48-18.9.6-18.91.31-18.95,19.07v7.31c0,19.34,0,19.34,18.44,23.83A7.81,7.81,0,0,1,643.88,1204.47Z"/><path class="cls-1" d="M830.48,165.35c.72,3.37-2.12,5-3.56,7.33-5.52,9-3.38,15.57,5.9,20.36,3.5,1.81,8.09,4.82.59,8-3.45,1.47-3.32,4.95-3,7.38,1.73,14.32-6.16,15.83-17.24,13.53-1.58-6.81,5.67-5,8.54-8.76-12.53-5.91-25.91-7.31-38.83-10.21-4.39-1-6.06,2.18-5.92,5.74.19,5.12-6.24,11.21,1.34,15.26a125.68,125.68,0,0,0,18,7.57c4.33,1.52,7.85.05,10.58-3.77,1.71-2.39,1.79-6.73,6.45-6,3.94,17.75-9.38,17-20.22,18.87-2.66-.93-5.12-2.31-7.68-3.47-11.86-5.41-12.92-5.15-19.6,6.56a35.78,35.78,0,0,1-8.65,9.86c-.74.85-1.53,1.65-2.32,2.45-7,5.36-10.89,14.86-21,16.22a3.44,3.44,0,0,1-2.31-2.29c0-.82,0-1.86.52-2.32,9.17-7.8,10.89-16.32,2.67-25.89A19.12,19.12,0,0,1,747,239.09c2.59.9,5,2.49,9.1,1.56-3.46-2.82-8.13.93-10.2-2.93-.57-6.91,7-7.06,9.86-11.83-34.61-13.95-70.78-22.26-106-33.46,14.07,4.34,26.68,11.84,39.71,18.42,3.21,1.62,6.59,3.62,6,8.26-4.5,3.73-8.54.67-12.25-1.28-15.73-8.26-32.11-15.11-48.19-22.59-3.06-2.08-8.25-.44-9.68-5.43a29.38,29.38,0,0,0-3-19,12.14,12.14,0,0,1,0-3.51c2-5.25,4.95-9.53,11.28-9.84,3.82,1.93-1.09,7,3.14,8.73,9.14-.58,17.33-4.46,25.67-7.46,24.89-8.94,50.55-15.13,76.45-21.35.4-7.13-8.88-9.38-7-16.32,2.81-2,6.1-1.5,7.78.7C748,132.63,759.74,134,772,134.33c1.73,1.11,2.88,2.46,1.88,4.68-5.9,5-13.37,3.28-20.1,4.72-35.6,9.05-71.37,17.49-97.87,26.39,23-4.57,55.17-7.14,87.46-8,14.21-.36,14.22-.12,9.94-13.42a6.68,6.68,0,0,1,.23-4.76c5.74-2.69,8.83,1.68,10.34,5.35,5.26,12.79,15.5,14.65,26.91,12.52,8.88-1.65,17.05-2.83,25.46,1.93C820.39,166.1,825.9,163,830.48,165.35Z"/><path class="cls-1" d="M245.09,646c4.44-10.48,8.59-21.1,13.46-31.38,2.28-4.84,3.84-9.58.14-13.68-13.66-15.13-7.19-29.34.89-44,2.49-4.53,4-11.77-2-13.75-3.79-1.26-9.88,2.55-14.16,5.3-2.44,1.57-2.43,5.66-2.28,9.1.21,4.83.63,10.51-7.43,8.7a5.33,5.33,0,0,0-3.42.85c-2.49,1.43-1,9.47-6.72,4.89a12.08,12.08,0,0,1-3.73-13.38,144.12,144.12,0,0,0,6.86-39.56c4.29-10.37,7.83-20.75,3.78-32.19-1.08-3-1.42-6.27-4-8.57a6.22,6.22,0,0,1-1.51-3c.55-5.76,4.32-7.94,9.5-8.57l1.66.63c-.47,9.79-.21,19.45,2.31,29.07,1.77,6.75,2.34,13.62-4.16,19-3.39,2.78-3,7.22-3.75,11.26-2.28,13.09-5,26.1-7.56,39,18.19-3.43,13.5-21.6,21.77-31.19,4-3.79.23,14.82,7.85,2.63,1.36-2.17,9.61,3.15,11.94,8,1.89,3.92,2.94,6.18,8.25,6,6.28-.27,6.49-4.83,6.84-8.15,1-9.24,8.43-11.17,14.67-14.66l1.4,1c.23,4.38-3.51,6.07-5.86,8.73-2.7,3.05-5.16,6.22-2.24,10.77,4.92-2.51,5-9.76,11.07-10.72a3,3,0,0,1,2.57,1.92c2,6.79-7.46,12.38-3.38,18.15,3.47,4.9,11.52,1.78,17.16,4.52,6.82,3.3,12.48,7.5,16.09,14.3,4,7.53,10.34,12.43,18.22,15.47,2.76,1.07,5.6,1.78,8-.43,3-2.73,1.94-5.89.35-8.91-3.79-7.22-7.59-14.42-7.58-22.89a3.46,3.46,0,0,1,2.29-2.38c7.15,7.67,7.79,18.55,13.35,27.14,2.3,3.55,1.34,8.84-2.17,12.51-3.93,4.11-9.16,3.95-13.7,2.47-9.8-3.2-18.43-8.27-23.35-18.17-5.67-11.43-15-16.71-27.89-15.5-2,.19-5.2.57-5.85-.43-6-9.26-16.19-3.18-24.23-6.3-10.06-3.9-10.75,10-13,16-3.32,9,1.39,18.37,7.47,26.22,1.37,1.77,2.35,3.4,4.73,2.32,2.05-.93,4.37-1.38,5.56.49,6.44,10.16,15.18,16,27.37,17.64,5.78.8,7.13,6.18,3.43,10.94-3.5,4.5-2.4,12.23-9.77,13.94a4.62,4.62,0,0,1-.76-4.61c4.74-10,4-16.75-9.16-17.77-3.51-.28-6.14-3.58-8.64-6.4-6.76-7.61-8.57-7.13-13.23,2.35-4.57,9.28-6,20.43-15.59,26.76C246.39,646.89,245.74,646.46,245.09,646Z"/><path class="cls-1" d="M926.25,911.79c-7.78,9.63-6.27,20.59-5.22,31.82s.7,22.77,1,34.16c.11,4-.74,8.46,4.64,10-.37,6.57-2,13,5,18.14,4.11,3,1.36,9.08,1.31,14.6,7.31.32,15-3.62,21.91,1.05,2.2,3.38-.22,3.87-2.73,4.57-5.32,1.49-11,1.8-15.87,4.72,7-3.75,15.66-2.58,22.19-7.73,8.71-2,16.06-9.86,26.1-6,.74,8.05-6.47,8.88-11,10.39-13.46,4.48-26.35,10.86-40.41,13.33-7.08,1.25-10.94,4.4-11.23,11.83-.34,8.9-3.2,17.51-3.62,26.86,10.13,1.18,17.3-11.94,28.14-5.71-7,7.19-16.66,9.41-25.49,12.89-6.78,2.68-10.1,6.92-11.92,13.78-4.72,17.7-11.67,34.5-22.36,49.56l-3.14-.23c-1.48-9.1,6.15-14.63,8.73-22.17,3-8.78,12.31-19.69,7.65-25.63-4.89-6.24-15.73,3.29-23.9,5.76-21.1,6.37-41.9,13.73-63.42,18.65-4.65,1.06-9.48,3.25-14-.5l-.07-2.56c3.61-6.11,10.23-6.19,16-7.62a690.49,690.49,0,0,0,80.33-25.22c8.12-3.11,12.68-7.92,14-16.56,1.33-8.44,2.32-16.93,3.73-25.36,1.31-7.79-1.67-12.12-10-13.45-8.85-1.41-17.7-3.77-21.32-13.73,3.88-5.63,7.85-1.57,11.26.33,6.61,3.69,13.62,5.23,21,5.65,6.13.35,8.57-3.17,9.92-8.57s-1.53-6.74-5.76-8.66c-8.94-4.07-19.42-7.35-18.13-20.64a9.88,9.88,0,0,1,3.41-1.3c9.44,1.12,12.6-2.87,12.71-12.47.21-17.06-2.24-33.87-3.17-50.82-.37-6.65-2.93-11.58-10.51-12.64-4.57-.64-8.63-2.58-9.09-8.16a3.46,3.46,0,0,1,2.18-3c3.51,4.56,7.86,6.24,13.78,5.5,6.53-.81,11.5,1.16,8.78,9.43C922.13,916.76,922.39,911,926.25,911.79Z"/><path class="cls-1" d="M885.61,177.6c6.57-.84,12.84,1.22,19.36,2.84-1.79-13.56-15.63-37.06-25.77-44.42-6.51-4.73-30.21-4-36.24,1.23-6.68,5.82-9.74-.79-13.89-3.81,1.94.25,4.15,0,5.75.87,2.49,1.36,4.58,1.84,6.3-.64,1.56-2.26-.58-3.68-1.83-5.07-2.4-2.66-3.84-6-1.47-8.7,3.39-3.84,6.51.23,9.65,1.57,4.06,1.75,6.14,6.24,11.08,7.11s12.63,5.43,14.31.8c1.92-5.26,2-13.8-4.79-18.69-2.24-1.61-4.39-3.36-6.49-5,1.16-2.86,5.4-.4,5.64-4-1.85-2.3-2.19-4.62-.09-7,4.34,8.19,13,10.11,20.36,13.9,4.21,2.18,8.93,3.37,11.76,7.63A5,5,0,0,1,896,120.1c-5.8,1.07-9.94-2.67-14.12-4.25-.11,10.73,7.39,12.66,16.82,12.32,5.73-.21,11.34,1,16.94,2.11,2.35,1.79,2.44,3.93,1,6.31-7.13,4.94-15,.12-25.42,1.18,9.57,13.24,14.89,26.67,22.86,38.68,2.88,4.35,8.22,5,13,6.18,18.23,4.45,35.88,10.76,53.49,17.11,4.75,1.71,11.78,2.12,11.59,10.08-4.91,3.64-9.37.51-13.88-1-19.35-6.46-38.41-13.85-59.66-18.57,3.08,13.29,5.7,25.92,7,38.76.65,6.4,5.67,9.56,11.16,11.94,14.25,6.19,28.5,12.37,42.16,19.81,4.53,2.47,10.06,4.26,10.27,10.91-18.83-6-35.26-17.29-53.65-24.18-3.56-1.34-7.44-6.33-11.75-.93-6.41-9.56-7.86-20.73-10.23-31.6,0-.56.07-1.13.11-1.69a99,99,0,0,0-4.35-18.68c-1.75-5.42-5.23-8.87-11.63-9-.57,3.8,3.74,6.18,2.87,9.9a3.53,3.53,0,0,1-2.1,2.52C890.93,193.22,889,185,885.61,177.6Z"/><path class="cls-1" d="M322.65,292.94c-2.82,6.42,0,13.05,4.28,15.75,6.14,3.87,9-5.76,14.64-7a2.07,2.07,0,0,1,.17,3.26c-6.06,4.79-12.17,9.52-18.15,14.41-3.81,3.1-8.57,6.62-6.89,11.94,1.78,5.66,7.66,2.7,11.83,3.19,1.59.19,3.19.23,5.71.41-3.3,7.85-5.7,15.4-14.68,17.81a4.7,4.7,0,0,1-.82-3.23,12.46,12.46,0,0,1,1.47-3.08c2.28-3.06,3.11-4.74-1.76-7-10.22-4.77-10.91-9.68-4.15-19,.95-1.32,2.15-2.45,3.14-3.75,2.19-2.89,2.62-6,.82-9.15-2.2-3.88-5.28-2.88-8.47-1.46-2.62,1.16-5.29,2.3-8.21.89.08-.4,0-1,.28-1.16,14.87-8.06,12.88-19.72,8.14-33-2.53-7.1-2.18-15.22-3.21-22.86-.44-3.28.95-8.25-5.5-6.53,3.29-17.11,2.77-34.85,9.72-53.17-28.25,7.49-54.8,15.43-80.21,27-5.06,2.3-9.92,6.12-16.07,3.22-2.14-7.88,5-8.32,9-10.28,24-11.73,49.27-19.89,75-26.5,10.88-2.8,18-7.85,22.61-18.16,3.9-8.74,7.07-18.52,16.72-23.35a6.55,6.55,0,0,1,3.46.58c2.44,6.69-3.45,10.27-5.8,15.14-2.6,5.4-6.29,10.32-7.71,16.87,11.9,1.59,22.64-6.21,34-1.94a6.11,6.11,0,0,1,.43,3.56c-3.44,6-10,3.88-15,5.85-28.39,4.91-30.38,7.38-34.05,39.13-.94,8.12,1.12,10.78,9.13,7.46s17.88-4.43,16-17.15c-.31-2.13,2-4.36,4.84-4.65,3.79,8.11,10.28,13.23,18.38,16.55-1.26,4.86-5.21,6.06-9.36,6.3-10.4.62-19.39,5.73-29.07,8.6-8.87,2.62-11.06,8.5-9.92,16.77C315.24,268.07,318.77,280.54,322.65,292.94Z"/><path class="cls-1" d="M675.66,911.22c-2,1.12-5.09.65-5.57,5,14.73,2.55,29.31-1.49,43.87-2.64s28.88-4.82,43.41-6.51c6.44-.74,8.25-2.56,7.4-9.07-1.43-10.89-1.78-21.91-2.59-32.88.7-1.89,1.68-3.32,4.05-2.52,6.47,7.69,2.54,17.23,4.44,25.78,2.78,12.51,2.55,12.77,14.9,10,13.85-3.14,27.79-5.86,41.36-10.18,5.64-1.8,9.43-4.53,9.22-11a4.91,4.91,0,0,1,2.18-2.76c9.76,20,23.93,38.9,17.39,63.33-1.16,4.33,1,5.66,4.2,7,5.29,2.27,9.35,6.19,13.06,10.49a3.73,3.73,0,0,1-3,2.17c-3,.15-5.42-1.88-8.16-2.33-11.51-1.88-14.23-9-12.82-19.51a59.55,59.55,0,0,0-2.51-27.82c-3.09-8.91-8.17-12.78-17.61-9.88-15.27,4.69-31,7.71-46.46,11.47-6.94,1.69-8.78,5.14-8.47,12.19.82,19.18,2.34,38.32,3.25,57.49.24,4.82.58,9.91-2.89,14.09a3.36,3.36,0,0,1-3.69-.53c-4.85-7.14-5.17-15.34-5-23.45.41-15.08-1.28-30-2.44-45-.54-6.9-2.34-10.63-10.28-9.35-22.86,3.68-45.74,7.33-68.92,8.36-6.78.3-9.94,4.64-12.19,10.21a2.45,2.45,0,0,1-3.54.54c-5.59-17-4.26-21.82,7.18-25.86A1.92,1.92,0,0,1,675.66,911.22Z"/><path class="cls-1" d="M656,236.61c9.94,7.24,14.64,18.59,21.6,28.13,5,6.81,9.07,11.56,18.54,8,3.61-1.37,9.7-2.11,11.61,4.43-5.47-.93-10.39-2.61-16,1.74-3,2.32-8.74-1.52-13.59-3.89,2.4,19.94-18.67,17.95-26.19,28.77a5,5,0,0,1-2.84-2.5C640.57,270.78,629.8,241,620,210.91c-1.6-4.9-4.33-9.8-1.89-15.26a3.23,3.23,0,0,1,3.12-1.47c5.85,3.67,6.15,10.29,8.21,15.9,2.95,8,5.4,16.3,8.88,24.15,2.48,5.58,1.31,14.84,12.64,11.65,2.69-.76,5.39,3.16,5.81,6.82-2.18,4.47-8.24,2.43-10.74,6.38.53,9.77,6.67,17.67,9,26.85.87,3.41,3.89,3.66,6.95,2.42a13,13,0,0,0,8.41-9.65c1-4.69-3.21-3.58-5.36-4.73-7.19-3.81-19-1.26-19.59-14.16,2.42-3.1,4.91-1,7.1.17,3.47,1.87,5.81.45,8-2.05,5.29-2.75.72-5-.4-7.43C658.1,246.07,652.6,242.67,656,236.61Z"/><path class="cls-1" d="M202.06,513.44c9.32-15,1.58-31.35,3.93-46.92.79-5.24,1.11-10.37,3.89-15.15,4.46-7.65,2.81-13.13-6.59-14.51-5.74-.85-8.19-4-9.22-9.5-.94-5-3.62-8.35-9.46-5.32-2.19-4,1.28-5.62,3.62-5.81,4.07-.32,7.32,3.22,8,6.43,1.65,8.16,6.39,10.63,14.06,12.12,8.2,1.6,7.71,9.46,4.8,14.61-6.94,12.28-6.8,24.58-4,37.76,2.16,10.31-.21,20.66-4.29,34,6.36-6,3-17.41,13.48-13.47-.36-6.58-.26-13.22-1.16-19.72-1.62-11.66,2.66-22.41,4.61-33.48a11.07,11.07,0,0,1,9.92-9.43c4-.38,5.75,2.51,6.46,5.93.1.47-1.5,1.29-2.31,1.94-1.43.84-2.64,2-4.19,2.66-5.93,5.79-6.7,13.54-8,21.07a21,21,0,0,1,1.74,1.52,95.59,95.59,0,0,0,.92,27.44c.95,5.06.31,9.6-3.31,13.46-10.29,6.26-3.14-6.32-8.54-6.54-1.62,5.46-4,11.7-12.1,11.21C199.31,521.17,198.87,517.68,202.06,513.44Z"/><path class="cls-1" d="M594.12,308.25c-19.91-.69-19.92-.69-25.61,18.65-.68,2.32-.93,4.8-1.89,7-4.39,10.1-6,19,7.63,23.37a5,5,0,0,1,3.38,5.79c-5.27-1.9-8.84-7.08-14.78-7.7-2.72,4.48,2,13.7-11.83,10.29-10.3-2.54-22.32-7.42-34.12-3.53-2.28.75-5,.84-6.79,2.22-3.5,2.71-6.65,7.12-11.47,4.23-5.68-3.41-1.13-8.75-1.22-13.23,3.43-3.45,4.29-.65,5.2,2.09.56,3.17,2.44,2.23,4.46,1.54,11.89-4.06,23.36-9.58,36.46-2.59,5.63,3,9.91-1.43,11.86-7.27,3-8.93,5.14-18.1,8.07-27.56-4,.2-6.3,5.55-10.63,3.18-3-6,1.87-9,5-12.41,8.63-9.12,19.8-14.26,31.12-19.09,3.52-1.26,7.24-3.28,9.2,2.14-1.57,6.43-6.15,7.71-11.72,7.51,4.12,1.77,10.36-2.7,13.66,3.32C599.09,309.67,596.67,309.16,594.12,308.25Z"/><path class="cls-1" d="M1014,732.86c-2.3-2.15-1.87-4,.59-5.68,5.49-6.14,0-14.48,4.05-20.91-3.46,6,.8,13.55-4,19.21-8.1-3-5.53-12.79-11.3-17.71-2.24,15.62-8.69,29-18.3,41-.07-.4-.35-.92-.19-1.18,14.17-23.12,15.67-49.5,19.45-75.3.67-4.5,1.81-11-1.6-12.62-9.59-4.69-7.28-13-8.46-20.44,3.46-.81,4.74,2.64,4.56,4.08-1.93,15.5,4.69,7.73,10.08,3.91.81-.58,2.18-.38,3.3-.54.16,18.67-6.1,37.09-2.61,56.52,3.33-3.07,5.07-7.72,10.14-6.16,4.86,1.49,4.85,6,5.58,9.91,1.12,6,2.79,11.88,1.73,18-.93,5.43-4,8.71-9.65,9.26A7.79,7.79,0,0,1,1014,732.86Z"/><path class="cls-1" d="M457.12,823.4c4.83.71,3.87,6.86,8.83,8.66.93-6.17,1.82-12.26,2.77-18.34,1.06-6.69-4.86-6.44-8.42-8.31-7.05-3.7-16.36-3.76-16.41-16.09,0-6.75-7.78-5.48-12.88-3.89-5.42,1.69-10.23,2.55-13.2-3.77,4.66.24,9,1.54,14.07.34,7.86-1.85,15.94-1.47,16,10.35,0,4.24,3.43,5.42,7,7.18,21.25,10.56,43.84,14.28,67.24,14.06,6.52-.06,12.3.37,14.94,7.54-15.08-7.64-31.76-3.59-47.55-6.44-17.85-3.22-17.92-2.45-19.67,16.63-1.33,14.54-1.43,29.23-5.35,43.45-8.06-2.37-3.87-8.44-4-13.21-.12-4.48,4.5-10.64-4.27-12.09a3.38,3.38,0,0,1-2.25-2.16C466.36,840.84,460.22,831.92,457.12,823.4Z"/><path class="cls-1" d="M916.89,296.26l2.31,4.91c-1.36,2.24.4,5.12-1,7.09-15.71,22.73,1.66,43,4.75,64.33.71,4.94,5.73,5.83,8.19,2.42,3.46-4.81,10.78-6.47,11-13.84.2-6.38,4.32-6.36,8.5-4.15,13.7,7.24,25.56,17.41,39.45,24.47,6.65,3.38,2.86,9.1.45,13.86-1.77,2.26-3.26,5.61-6.7,1.86-.48-7.64-4-12.87-11.56-15.26-6.33-2-10.57-7.59-16.58-10.16a9,9,0,0,0-4.92,2.19c-4.47,1.48-12-5.28-12.72,6.7-.44,7.66-10.5.66-15.8,4.95-3.12,2.53-3.28-4.05-4.11-6.75-4.39-14.39-8.39-28.9-12.94-43.24-1.45-4.55-1-8.56-.18-13.1,1.55-8.87,10.78-15.4,7.44-25.88-.53-1.67,2.58-5.1,6.32-3.72C919.81,295,918.92,296,916.89,296.26Z"/><path class="cls-1" d="M612.1,933.69c6.11,15.41,17.9,28,21.88,44.48-.55.31-1.1.62-1.64.94-8.05-.47-7.48-8.58-12.12-13.74,0,22.72.1,44.49-.09,66.26,0,5.54,1.16,11.57-3.73,16.09-2.2.46-4.26.45-5.82-1.54-2.67-4.47-2.44-9.44-2.47-14.33-.2-31.07.28-62.14-.5-93.22A6.26,6.26,0,0,1,612.1,933.69Z"/><path class="cls-1" d="M916.89,296.26l1.94-3.32c4.56-3,4.6-6.82.37-9.39-5.86-3.57-9.14-9.22-12.75-14.39-3.88-5.56-10.41-11.94.33-18.33,3-1.77-1.21-5.36-3-7.52-2.87-3.49-8.94-4.65-7.54-12.23,10.91,3.42,19.09,9.09,22.64,20.28.15,5.68-10.65,6-7,14.33,4.1-4.58,4.3-10.07,6.92-14.4,5.12,2.68,8.95,6.38,9.85,12.41-3.08,1.76-5.79-5.9-6.79-1.83-1.35,5.41-8.4,12.43.69,17.62,6.36,3.64,3.6,9.23,2.83,13.87S920.73,298.13,916.89,296.26Z"/><path class="cls-1" d="M1018.36,497.7c-8.37-2.84-9.67-12.76-15.63-16.2-13.29,8.64-13.46,21.74-12.65,35.15-6.31-9.25-4.46-24,3.9-30.27,5.27-4,3.73-9.75,3.12-14.6-3.1-24.66-8.84-48.56-22.77-69.73a2.41,2.41,0,0,1,2.52-1.75c9.21,3.5,10.79,12.4,14,20.09,1.69,4.09,3.55,8.25,4.49,12.52,1.59,7.23,5.27,7.43,10.68,4.35a3.19,3.19,0,0,1,2.44,2.15,8.9,8.9,0,0,1-1.77,6.92c-8.51,12.16-4.63,22.84,3.4,33.41C1014.07,485,1020.21,489.6,1018.36,497.7Z"/><path class="cls-1" d="M975.35,755.82c-4.3,9.84-11.54,17.45-19.34,24.46-5.4,4.85-8.23,8.64-3.11,16.22,3.86,5.72,1.12,12.59-4.66,17.23-2.91-1.39-.79-6-4.28-6.78-.71-.16-1.72,1.52-2,2.66-.92,4,2.1,3.07,4.2,3.26a5.09,5.09,0,0,1,2.17.73c-1,6.76-5.9,9.33-11.16,6.67-5.57-2.81-4.85-8.6-1.72-13.63a13.44,13.44,0,0,1,2.9-3.8c5.06-3.8,1.43-7.73-.59-10.4-2.68-3.54-6.39-.72-9.41.85-2.74,1.43-3.29,5.67-7.18,5.71-.09-5.31,3.5-8.3,7.59-10,6.23-2.59,13.9-7.18,14,8.82C949.51,777.45,963.38,767.42,975.35,755.82Z"/><path class="cls-1" d="M965.52,560.66c1.12,7.19-2.6,12.22-8.1,18.24-1-7.59-4.13-13.28-3.35-21.69-7.54,12.21-5.46,20.51,6.54,33-1.21,12.18-4.27,13-19.76,4.93,2.7-3.06,6.26-3.43,10.39-3.18-.37-3.66-2.35-6.53-3.92-9.71-2.81,4.2-4.24,8.77-6.33,13-6.51-.69-6.45-5.83-3.54-8.58,6.39-6,4.93-14.31,8-21.16,1.82-4.07.92-11,7.52-10.55,7.09.49,4.3,7.47,5.49,11.77C963.9,568.12,961.12,560.23,965.52,560.66Z"/><path class="cls-1" d="M589.67,340.87c-1.06-4.07,2.32-6.65,3.45-10,1.39-4.08,3.86-7.51,9-5.45,4.25,1.69,8.47,3.82,6.27,9.74-.87,2.35-.48,3.85,2.07,4.49,1.78,12.47,3.68,24.92,5.21,37.41.28,2.34-1.48,4.49-3.82,5.67-.58-2.46-2.33-2.67-7.55-.89,3.21-11.87-1-23.62-.76-35.48.05-3-1.37-5.91.22-9.15s1.42-6.64-2.45-8.22c-4.27-1.75-4.42,2.53-5.54,4.68C594.25,336.62,593.06,339.61,589.67,340.87Z"/><path class="cls-1" d="M189.48,384c2.1-11.24-4.69-20.85-5.87-31.54-1-9.18-3.86-18.15-3.51-27.53.76-1.11,1.5-1.1,2.22,0,3.81,14.51,3.88,29.81,9.22,44,.94,2.5,0,6.69,3.75,6.85,2.86.11,4.74-3,6-5.58,3.14-6.57,7.46-12.79,7.52-20.42,0-4.8,2.69-8.6,6.4-9.46,4.35-1,5.77,3.73,6.26,7.3.6,4.35,4.72,4,6.92,6.09-10.52,6.61-9-5.08-13.36-9.92C208.73,359.51,207.91,377.66,189.48,384Z"/><path class="cls-1" d="M898.5,954.35c-16,.83-25-12.08-37-19.11a3.89,3.89,0,0,1-1.41-3.22c2-11.95,3.93-23.91,6.47-35.75.34-1.62,5.4-3.89,5.62-3.64,6.09,7.3,17.47.18,23,8.53a8.61,8.61,0,0,1-1.71,1.42c-2,.69-4,.36-6,.41-13.39.33-22.9,10.33-18.93,22.93,2.4,7.6,8.37,15.58,17.51,18.27,5.12,1.51,10.27,2.45,13.54,7.23A2.46,2.46,0,0,1,898.5,954.35Z"/><path class="cls-1" d="M901.78,990.38l-3.36.34c-7.3.63-14.91,4.77-21.57-1.91,1.54-3.31,4.11-4.78,7.95-4.36-8.27-7.38-16.91-14.53-13.43-27.51.51-.57,1-1.12,1.61-1.66,5.59,2.43,3.63,8.5,5.91,12.64,5.38,9.79,17.06,17.07,27.59,15.58,2-.28,5.26-2.13,4.18-2.86-9.53-6.42-3.63-19.71-12.16-26.29q.74-.84,1.44-1.71c5.87-1,7.85,2.87,9.12,7.39,1,3.49,1.6,7,3.25,10.34C919.57,985.07,918.25,987.48,901.78,990.38Z"/><path class="cls-1" d="M612.1,933.69c-.71.86-1.42,1.73-2.14,2.59-7-10.25-17.15-11.59-28.65-11.18-16.89.6-33.91.91-50.17-5.24-1.13-2.79-.35-4.11,2.78-3.61,22,.15,43.9,4.39,66.66,2.54-2.71-7.81-6.18-15.46-6-23.93-1.3-2.58.08-2.77,2.12-2.38,2,10.27,3.83,20.56,11.16,28.88A16.94,16.94,0,0,1,612.1,933.69Z"/><path class="cls-1" d="M755,252.91c7.53,4.63,15.07,9.22,22.57,13.89,2.6,1.62,5.49,2.76,7.46-.18,2.24-3.32-.42-4.84-3.25-6.09-3.61-1.59-3.92-6.82-8.86-7.59-2.32-.36-4.57-3.46-3.19-6.76.86-2.06,2.94-2.44,5-2.71,4.62-.61,5.45,1.76,5,5.68-.07.62,1.68,1.42,2.58,2.14-.18,1.18-.85,3.24-.5,3.43,16.3,9,4.36,15.78-1.64,23.07-.46.56-.43,1.52-.63,2.3a2.49,2.49,0,0,1-2.73,1.4c-1.26-14.51-18.67-15.06-23.16-26.78C754.14,254.1,754.58,253.5,755,252.91Z"/><path class="cls-1" d="M779.75,835c3.07,13.78,17.81,17,24.88,27.32,3.82,5.6,7.09,10.68,6.47,17.72-.21,2.45-1.76,6.07,2.56,6.92a8,8,0,0,0,7.82-2.28c3.37-3.53,7-6.81,10.4-10.31,2.25-2.33,4.3-4.15,6.45,0-.44.54-.89,1.09-1.32,1.64a26.06,26.06,0,0,1-15.46,14.83c-11.75,4.28-16.26,1.39-16.88-11.12-.51-10.36-8-15.61-14.82-21.37-6.59-5.54-13.8-10.65-12.68-20.86A3.64,3.64,0,0,1,779.75,835Z"/><path class="cls-1" d="M231.09,356.91c9.63-7.64,3.41-13.68-1.7-20.28-4.26-5.52-9.91-12.72,4.24-11.54,5.06.42,3.88-5.92,7.92-5.95,2.5,5.35,4.37,10.27-3.08,13.74-2.75,1.28,3,11.3,7.65,12.55,2.68.72,5.66-.81,8.36.62,3.25,6.65-4.67,8.79-5.57,13.78a2.25,2.25,0,0,1-2.93-.4C241,358.66,234.74,365.52,231.09,356.91Z"/><path class="cls-1" d="M764.49,862l-2.31,3.07a17.74,17.74,0,0,1-.47-2.37c-1.34-21.31-5.11-23.15-23.76-12.2-2.72,1.6-2.72,3.3-3.05,5.7-.62,4.54-2.1,8.64-7.71,9.08,2.67-17.85,16.91-21.5,31-25.42,2.16-.6,4.67-.74,5.76-3.72,4.33-11.76,9.89-9.46,15.78-1.12-.6.48-1.19,1-1.75,1.5-7,1.43-9.78,6.23-10.62,12.85C766.83,853.67,767.88,858.37,764.49,862Z"/><path class="cls-1" d="M386,882.57l-.54-3.83c2.12-6.16,7.45-4.2,11.44-3.91,15.27,1.1,28.94-4.3,40.44-12.78,5.64-4.16,8.72-12.26,16.58-14.74.53.48,1,1,1.51,1.5-5.14,8.11-8.15,17.29-17.8,22.54C421.32,880.23,403.64,880.75,386,882.57Z"/><path class="cls-1" d="M321.57,513.94c8.13,4.23,9.57,9.91,5.92,18.15-1.24,2.78-1.21,8.36.55,9.77,3.7,2.95,8.86,2.32,13.26-.26l1-1.33c5.09-1.58,8.16,1.83,11.48,4.64.22.5.44,1,.65,1.5-7.23,2.64-4,7.06-1.94,11.3a5.26,5.26,0,0,0-1.49,1.37c-8-3.9-14.45-10.52-24.29-11.62-6.5-.73-6.82-9.12-10.07-14a4.33,4.33,0,0,1,.76-3.2C326.82,526.91,317.28,518.64,321.57,513.94Z"/><path class="cls-1" d="M862.24,150.57c.49,2,2,4.61,1.29,5.82-10.28,16.74,3.05,16.44,13.12,18.45,3.15.63,6.6.19,9.11,2.85-5.9,6.36-11.93,10.44-18.74,1.08a1.84,1.84,0,0,0-.95-.72c-18.48-3.5-11.85-13.84-6.52-23.84a1.8,1.8,0,0,1-.53-2c.3-.61.57-.91.82-.91l2.63-.47Z"/><path class="cls-1" d="M458.66,372.51c-1.75-.93-2.69-5-5.56-1.56-1.8,2.16-2.2,7.83-6.12,4.76-2.86-2.23-6.38-6.76-3-11.73a37.08,37.08,0,0,0,6.81-16.49c1.08-7.52,5.67-2.88,8.21.14,4.27,5.07,6.22,13,15.31,11.68a2.36,2.36,0,0,1,.7,2c-.13.72-.28,1.08-.44,1.08-3.77,2.68-8.31,2.68-11.07-.27-6.13-6.56-9.8-4.09-12.19,1.83,4.85-1.89,9-.93,9.63,6.33A2.86,2.86,0,0,1,458.66,372.51Z"/><path class="cls-1" d="M402,334.83c-3.53,3.91-8.34,2.52-12.62,2.83-18.5,1.33-24.79,7-27.86,25.52-12.06-.3-21.83,6.07-32.08,11,5-7.16,10.76-12.63,20.44-12.59,3.38,0,7.63-1.43,8.84-5.45C365.52,333.44,383.52,333.74,402,334.83Z"/><path class="cls-1" d="M1013.05,590.1c-.75,3.07-3.1,4.5-4.94,1.89-4.47-6.34-8.89-12.91-11.91-20-1.87-4.37-2-6.74-7-3-4.17,3.12-8.57.84-8.86-3.82-1-16.33-8.46-8.18-14.94-4.36.06-6.68,4.5-8.89,10.1-9.6,6.7-.84,6,5.07,7.56,8.78.72,1.67.08,5.55,2.15,4.76,18.77-7.16,14,13.08,21.71,18.72C1009,585,1009.39,589.27,1013.05,590.1Z"/><path class="cls-1" d="M367.52,369.17c4.89-.05,1.86-8.11,7.49-7.4-2.07,8.22-.87,13.8,9.36,15,5.38.63,11,3.18,11.6,10.34.34,4-2.45,4.27-5.2,5.21-7.95,2.71-9.22-3.95-12.16-8.33-.85-.56-1.14-1.12-.86-1.69s.56-.85.84-.85C376.28,376.11,368.7,375.53,367.52,369.17Z"/><path class="cls-1" d="M939.56,845.51c13.4,3.16,22-8,33.34-11.1-2.59,8.77-11.51,8.73-17.7,12.22-5.58,3.15-7.27,5.37-4.56,12,6.42,15.75,4,22.55-9.85,34.71,1.29-9.5,13.21-15.2,8.46-27.4C946.47,858.83,944.13,851.71,939.56,845.51Z"/><path class="cls-1" d="M376.07,360.71c4.44-12.79,13.66-19.48,26.88-21.08,2.42-.3,5-.13,7.23-1,3-1.18,8.86-.09,7.53-5.67-1.2-5-5.93-2.87-9.28-2.12-1.9.43-3.58,1.87-5.36,2.85,1.21-8.67,7.76-7.52,13.54-7,4.13.39,6.62,3.21,5.93,7.59-1,6.63-6.08,8.25-11.69,7.92C395.41,341.33,386.05,351.52,376.07,360.71Z"/><path class="cls-1" d="M652,303.77c-2.26,2.41-4.52,4.84-2.91,8.56,1.52,3.49.31,5.66-3.35,6-15.17,1.37-14,9.63-6.29,21.66-7.51-2.08-11.94-6.42-17.56-5.07-.17-.54-.33-1.08-.5-1.62,7.12-5.87,4.82-20.14,21.22-19.91-4.88-2.59-7.62-2.43-10-3.23-2.29-1.08-4.86-2-3.36-5.42a32,32,0,0,1,21.12-2.57C650.88,302.68,651.42,303.21,652,303.77Z"/><path class="cls-1" d="M403.27,767.08c-6.81.14-7.21-5.59-8.79-10-1.51-4.2-2.48-8.61-3.61-12.94-1.91-7.31-8.89-7.82-13.62-7.23s-2.89,6.54-2.27,10.51c.38,2.4.56,4.84.83,7.27-.74,1.24-1.51,1.26-2.31.07a11,11,0,0,1-2.12-9.3c1.1-4.6-4.52-12.34,5.16-13.21,7.93-.72,15.12.6,17.42,10.17C396,751.05,397.87,759.75,403.27,767.08Z"/><path class="cls-1" d="M708.94,278.26c4.81,3.08,9.69,2.25,12.31-2.24,2.36-4.06-3-5.64-5.15-8.14-6.71-8-16.58-13-21.44-22.74,7.55-2,10.72,4.3,15.15,8.07,7,6,11.91,14.61,21.77,16.92a9.49,9.49,0,0,0,1.38,1.59c.41,3.07-.82,5.5-2.91,7.62-6.55,2.78-11.76,8.27-19.08,9.5l-1.3-1C709.43,284.61,709.18,281.43,708.94,278.26Z"/><path class="cls-1" d="M341.74,305c-.06-1.08-.11-2.16-.17-3.25a8.16,8.16,0,0,1,8.06-1.67c20.41,6.47,39.35-.65,58.51-5.85,2.12-.57,3.92-1,5.13,1.38-19.4,6.61-38.65,14.05-59.79,7.92A14.45,14.45,0,0,0,341.74,305Z"/><path class="cls-1" d="M596.67,892.48l-2.12,2.38c-4.27-7.61-4.56-16-4.49-24.37.05-5.85-1.7-8.1-7.62-5.15s-11.51,3-16.1-2.6c6.62-1,13.41.5,20-2.67,7-3.37,7.09,3.39,7.78,7.13C595.64,875.52,593.91,884.23,596.67,892.48Z"/><path class="cls-1" d="M992.42,310.21a5.19,5.19,0,0,1,4.37,6.15c-.43,2.56-3.37,1.74-5,.89-15.11-7.77-31.6-13.08-44.65-24.57-2-1.8-4.72-3.5-3.83-7,12.64,10.57,27,18.15,42.06,24.68C987.78,311.41,990.13,314.07,992.42,310.21Z"/><path class="cls-1" d="M246,359.43l3.35-.41c9.42-5.33,18.82-9.86,29.21-1.95,3.47,2.64,6.82,1.51,9.74-1.5,2.21-2.28,4.13-5.18,8-4.66,4,2.29,1.64,4.85.33,7.37l-1.43,1.05c-2.41,2-4.86,4.05-7.23,6.15-4,3.57-7.4,6-11.44-.66-4.2-6.9-10.4-7.87-17.52-3.29C254.38,364.5,249.74,363.74,246,359.43Z"/><path class="cls-1" d="M464.46,298c11.36,8.76,15.05-6.74,23.43-7.42-1.09,1.66-1.85,3.71-3.32,4.9-10.86,8.89-15.81,19.45-10.1,33.31-4.38-6.31-14.58-10.68-5.62-21.1C472.27,303.67,465.58,301.45,464.46,298Z"/><path class="cls-1" d="M501.38,356.86c-.86-1.7-2-2.69-4-1.54-.32.25-.81.44-.94.77-3.53,9.29-7.9,16.77-19.44,9.27a2.93,2.93,0,0,1,0-4.06c7.89,3,13.66,1.06,15.82-7.51,2.12-8.39,12.51-9.29,14.94-17.22a3.52,3.52,0,0,1,2.36,2.49C508.46,345.58,509.68,353.58,501.38,356.86Z"/><path class="cls-1" d="M378.59,381.45c0,.85,0,1.69,0,2.54-5.27.42-13.06-4.4-12.5,7.45.14,2.92-5.44,7.58-9.25,8.87-6.37,2.15-4.35-4.63-6.12-7.58-1.61-2.67-4.35-.38-6.59-.05.35-5.76,4.47-6.19,8.61-5.49,5,.84,3.57,5,2.83,9.18C363.61,390.78,362.24,372,378.59,381.45Z"/><path class="cls-1" d="M303.25,369.18c-1.66-3.54-1.25-9.16-7.81-7.76a2,2,0,0,0-.25-2.09l-.15.18c2.56-3.28,6.57-4.53,9.82-6.89-1.26-2.26-5-1.1-5.49-4.18,8-10.43,15.55-9.95,20.22,1.28l.18-.28c-2.63,5.56-7.47,9.66-10,15.28C308.3,367.25,306.78,369.69,303.25,369.18Z"/><path class="cls-1" d="M303.25,369.18l4.48-5.73c4.77-2.69,6.14-9.25,12.09-10.6,1.23,8.79-7.72,13-9.65,21.32,6.76-1.88,13,2.53,19.45-.12-3.35,8-12.25,3.74-17.35,7.88C311.6,376,301.71,376.64,303.25,369.18Z"/><path class="cls-1" d="M341.3,541.6c-7-6.81-2.95-12.24,3.95-12.16,8.59.11,18,.73,26.37,6.19-8.44,0-10.07,9.59-17.23,10.78l-.91-1.11c-.68-2.89,2.14-6.84-2.15-8.58s-6.77,1.29-9.23,4.08Z"/><path class="cls-1" d="M970.43,595c-4,13.5,1.26,24.38,9.62,34.4-3.45-7.19-16.66-1.48-16.77-11.73-.08-6.91,2.84-13.87,4.62-20.76C968.11,596.15,969.55,595.67,970.43,595Z"/><path class="cls-1" d="M294.32,528.2c5.54-10.42,17.11-9.87,26-14.25-.43,5.64-6.85,10.38-2.54,16.75l-1.22,1.44c-6.46-.14-10.1,5.78-15.77,7.34a6.1,6.1,0,0,0-1.69-1.38c-2.53-2.25,3.55-7.94-3.37-8.43A5.64,5.64,0,0,0,294.32,528.2Z"/><path class="cls-1" d="M373.5,754.81c.77,0,1.54-.06,2.31-.07,2.75,8.7,14,14.57,8.22,25.63,3.77,3.73,6.31-4.3,9.6-.24a1.66,1.66,0,0,1,.21,1.13,4.62,4.62,0,0,1-.47,1.11c-6.08,1.09-4,7-6.85,13.45C380.2,781,380.8,766.48,373.5,754.81Z"/><path class="cls-1" d="M266.34,702.26c8,11.89,6.46,26.06,9,39.21.84,4.36,1.33,8.63,3.43,12.57-.59.51-1.19,1-1.81,1.45-3.68-.49-6.66-3-6.8-6.12-.73-15.33-7.32-30-5.4-45.56A6.41,6.41,0,0,0,266.34,702.26Z"/><path class="cls-1" d="M393.19,789.2c1.4,11.7,14.67,18.34,25.26,12.73,3.84-2,6.9-5.81,11.83-5.53-12.24,12.64-21.41,14.74-35.6,7.06C388.23,800,389.1,794.45,393.19,789.2Z"/><path class="cls-1" d="M668.27,934c.71,0,1.43,0,2.15,0,5.06,16.63-6,41-19.73,43.44A4.12,4.12,0,0,1,648,975C662.72,965.29,663.29,948.54,668.27,934Z"/><path class="cls-1" d="M171,352c6.55-.8,5.45,4.24,6,7.95,1,6.33,2.22,12.64,2.79,19,.66,7.3,5,6.31,9.78,5-7.4,7.6-10,7.53-12.35-1.42C174.6,372.48,173.05,362.16,171,352Z"/><path class="cls-1" d="M859.84,151.26c-.09,1-.19,2-.29,3-6.53-.46-12.07-5.65-17.27-6.42-9.54-1.41,2.39,11.69-6.35,13.91-2,.49-2.62,4.06-5.59,3.83,0-5.47,6.27-8.43,4.65-15.54-1.16-5.06,4.84-9.85,10.75-4.69A22.56,22.56,0,0,0,859.84,151.26Z"/><path class="cls-1" d="M923.62,246.39c8.56,5.56,17.91,9.28,27.61,12.34,4.62,1.46,6.68,5.44,7.67,10C949.07,258.21,930.24,262,923.62,246.39Z"/><path class="cls-1" d="M742.58,289c-10.39-.14-18.4,8.71-29.35,7.3-7.47-1-6.87-3.75-3.55-8.46l.69.6c9.26,3.67,15.86-3.37,23.59-5.87,3.23-.6,5.53,1,7.54,3.23A6.64,6.64,0,0,1,742.58,289Z"/><path class="cls-1" d="M578.78,364.2c4.21-1.08,5.49,4.32,10.55,4.73-4.67-9.37-10.56-18.24-.8-26.83-1.22,5.9-2.33,11.76.46,17.59,2.15,4.49,7.09,10.47.44,13.4C584.33,375.34,581.31,368.59,578.78,364.2Z"/><path class="cls-1" d="M430,293.16c9.09-3.71,29-.87,34.61,4.94C452.54,300.29,441.88,292.47,430,293.16Z"/><path class="cls-1" d="M297.94,376.75c4.17,2.34-2.22,15.88,10.13,9.56-.45,2.54-.63,4.63,3,5.06,6.85.82,9.32,5.47,9.49,11.81q-1.24,2.07-2.94.35c-.2-5.7-3.24-9.08-8.79-9.59C297.53,392.9,294.88,386.71,297.94,376.75Z"/><path class="cls-1" d="M989.93,516.46c5.39,1.37,4.08,5.44,3,8.67-3.93,11.4-1.2,19.45,10.76,23.42-16.8-1.43-17.17-2.11-14.18-17.62C990.39,526.25,989.82,521.29,989.93,516.46Z"/><path class="cls-1" d="M779.61,280.09c2,2,6.63,4.48,0,5.87-5.64,1.19-11.26,0-15.53-4.53-3.88-4.07-8.41-6-14.07-4.89l-1.14-1.38c4.71-7,10.2-4.08,15.72-1.26,4.59,2.34,7.77,7.33,13.62,7.3A6.9,6.9,0,0,0,779.61,280.09Z"/><path class="cls-1" d="M727.37,865.15l-22.28,21C708.12,874.46,716.35,868.32,727.37,865.15Z"/><path class="cls-1" d="M611.79,337.61c.12-3.32.23-6.64.35-10,1.21-1.53,2.76-1.61,4.46-1,3.06,1.88,3,5.7,5.09,8.2l.15.1c-2.71,2.78-2.17,6.81-2.65,9.94C613,345,615.61,338.54,611.79,337.61Z"/><path class="cls-1" d="M477.07,361.3l0,4.05c-3.69,2-7.38,3.32-9.46,7.93-2.65,5.84-6.38,4.79-8.92-.77l1.94-1.61c3.19-5,7.54-8.22,13.62-8.71,0-1,.09-1.92.13-2.88,1.07-1.71,2.08-.55,3.09.08A15.7,15.7,0,0,1,477.07,361.3Z"/><path class="cls-1" d="M437.78,803.37c2.21,10.87,13.48,13,19.49,20.19-8.91-2.62-18.24-4.73-20-16.18A2.93,2.93,0,0,1,437.78,803.37Z"/><path class="cls-1" d="M943.44,285.84c-10.19-3.93-9.75-15-14.88-22.27C938.08,268,938.86,278.16,943.44,285.84Z"/><path class="cls-1" d="M977.1,288.06c6.16,6.75,12.49,13.38,15.43,22.35C985,304.61,978.3,298.24,977.1,288.06Z"/><path class="cls-1" d="M960.47,590.31c-.24-8.76,8.25-3.32,11.5-6.87,1-1.09,3.65,1.56,4.15,3.39,1.32,4.84-1.85,7-5.83,8.38.48-2.19,2-5.9,1.28-6.33C967.78,586.4,964.2,589.6,960.47,590.31Z"/><path class="cls-1" d="M974.33,402.05c-5.8-6.51-13.36-11.68-15.85-20.73a4.35,4.35,0,0,1,5-.46c4.09,6.61,13.71,9.69,12.58,19.65Z"/><path class="cls-1" d="M675.66,911.22l-.21-3.11c7.12-1,9.11-9.3,15.68-11.1C690.59,906.78,682.54,908.35,675.66,911.22Z"/><path class="cls-1" d="M317.61,403.53l2.94-.35c5-3.26,12.94,1.78,16.41-5.8C333.76,407.37,329.35,408.77,317.61,403.53Z"/><path class="cls-1" d="M437.78,803.37c-.18,1.33-.35,2.67-.53,4-4.54-2.18,1.17-11.15-7.17-10.83,1.65-4.46,5.35-6,9.54-7.47C441.9,794.67,437.21,798.65,437.78,803.37Z"/><path class="cls-1" d="M475.56,329.84c8.84,6.85,11.49,15.17,6.06,25.42C482.43,346.11,478.18,338.17,475.56,329.84Z"/><path class="cls-1" d="M143.15,370.06,159,361.79c-3.79,7.85-10.93,11.1-18.64,13.6C139.23,372.54,141.42,371.42,143.15,370.06Z"/><path class="cls-1" d="M913.52,215c-5.77-5-12.14-9.46-15.1-17,.48-.42,1-.83,1.46-1.24,8.28,2.82,14.4,7.44,14.44,17.18C914.07,214.29,913.8,214.63,913.52,215Z"/><path class="cls-1" d="M231.11,452.75l6.62.16c1.56,5,4.2,10.2-1.57,14.45l.19.1C232.48,463.31,229.72,458.77,231.11,452.75Z"/><path class="cls-1" d="M939.74,894.59c-4.33,6-6.21,13.84-13.64,17.37C929,904.87,931.09,897.16,939.74,894.59Z"/><path class="cls-1" d="M558,844c-6.44-3.87-13.57-6.88-17.5-13.91C548,832.74,554.9,836,558,844Z"/><path class="cls-1" d="M634,978.17c5.25,1.57,10.54,3.34,14-3.15a20.62,20.62,0,0,1,1.54,1.56c1.22,5.95-2.24,9.43-7.21,10-5.22.64-8.93-2.28-8.32-8.45Z"/><path class="cls-1" d="M418,781.81c-8.85-1.08-10.39-9.48-14.93-14.88C411.34,768.6,413.11,776.77,418,781.81Z"/><path class="cls-1" d="M921.33,798.83c-1.56,7.16-5.83,12.86-10,18.65C911.22,809.41,914.35,803.1,921.33,798.83Z"/><path class="cls-1" d="M963.21,381.66l-4.73-.34L950.82,374c.6-1.49,1.19-3,1.78-4.48C959,371,962.87,375.57,966,381A2,2,0,0,1,963.21,381.66Z"/><path class="cls-1" d="M750,276.54c-4.78,2.76,1.68,12.24-7.42,12.41-.4-.54-.76-1.1-1.11-1.68-1.38-6.41-2.64-12.75,7.46-12.1A4.62,4.62,0,0,0,750,276.54Z"/><path class="cls-1" d="M174.73,551c-.74-4.13,2.11-7,4.32-9.47,8-8.82,8.48-18.28,3.86-28.62,6-.52,7.35,3.91,7.63,8.18.19,2.91,1.33,2.39,3,2.21.45.34.88.68,1.31,1C188.44,533.47,183,543.32,174.73,551Z"/><path class="cls-1" d="M238.74,600.39C228.6,600,226,592.23,222.35,586c-.46-.8.79-2.86,1.62-4.09a1.53,1.53,0,0,1,2.78.3C228.67,589.23,238.2,591.28,238.74,600.39Z"/><path class="cls-1" d="M202.06,513.44c.11,3.56-.32,7.22,2.14,10.29-2.9,3.48-6.24.2-9.34.63-.4-.41-.8-.82-1.21-1.22-1.92-5.09-8-8.89-4.84-15.55C192.45,511.3,196.29,514.56,202.06,513.44Z"/><path class="cls-1" d="M314,1104c-.49-.62-1.56-1.49-1.41-1.84,6.6-15.19-6.84-15.18-14.66-19.48-5.09-2.81-11.59-3.23-15.09-8.79,11.4.87,20.08,9.46,32,11.32-2.64-17.93-6.39-35.29-7-53l2.52-.1c6.11,1.55,4.62,6.83,5.15,10.91,1.4,10.84,2.18,21.78,4.75,32.42,3.35,13.87,12.48,18,25.46,11.8,10-4.77,12.31-3.86,17,6.82-12.89,2.52-24.75,10.28-38.7,7.48a8.91,8.91,0,0,0-7,1.5A7.34,7.34,0,0,1,314,1104Z"/><path class="cls-1" d="M366.32,1105.19l7.39,2.39,56.47,15.76-.12,2.48c-17.5-1.86-34-7.79-50.71-12.84-8.67-2.63-13.1-.85-15.43,7.7-1.17,4.29-3.51,8.28-4.44,12.6-1.63,7.49-3.2,14.22-13.48,12.5-2-.34-.8,2.52-.89,4l-3.17.31c-3.05-5.87-7.74-10.19-13.08-13.89a3.65,3.65,0,0,1,2.46-2.24,6.12,6.12,0,0,1,2.41,0c18.25,4.64,19.21,4,24-14.81C359.18,1113.69,357.38,1106.05,366.32,1105.19Z"/><path class="cls-1" d="M611.45,1049.72,580,1049c0-.7,0-1.39-.06-2.09l31.52-.27,5.76,0c11.73-5.91,23.87-3.47,36-1.79,2,1.26,4.26,2.39,2.34,5.36-12.81,4.43-25.59,5.06-38.31-.39Z"/><path class="cls-1" d="M548.14,1142.34l31.53.8c-2.82,2.94-6.78,1.09-10,2.37l-21.6-.84C548.12,1143.89,548.14,1143.12,548.14,1142.34Z"/><path class="cls-1" d="M140.53,339.69l-37.35,39.22c-5.74,3.09-7.68,10.55-14.39,12.51A199.15,199.15,0,0,1,140.53,339.69Z"/><path class="cls-1" d="M523.54,919c-17.31-3.85-35.31-3.62-52.35-9l3.08-2.38c3.07-3.73,5.22-.92,7.49,1l52.16,7.62-2.88,2.6Z"/><path class="cls-1" d="M1051.17,789.69c5.29-1.14,10.76-7,15.41,1.72,2.57,4.79,6.11-3,9.35-.48,3.54,2.81,7.39,6.48,4.31,11-2.75,4,.12,7.94-1.69,11.53l-.64,1.53c-1.12,2.36-7-.84-5.45,5.51,1,4.44-1.91,9.24-4.71,13.25-9.8,1.88-12.06-5.69-15.33-12.13-3.48-6.86,3.37-10.89,6-9.83,13,5.26,6.76-8.83,12.39-10.74-5.79-2.12-10.76-1.25-16.32,0-5.74,1.29-7.73,2.26-5.65,8.25.71,2,1.4,7.6-2.11,6.88-14.64-3-6.5,6.54-5.88,10.66,4,26.57,8.05,53.11,8.46,81,7.84-3.51,15.28-7,21.3-12.65,5.17-4.83,10.49-8,17.74-6.58,1,3.67-1.87,5.42-4.11,6.57-14,7.19-15.8,22.12-22,34.24-3.6,1.35-5.24-1.27-7.1-3.47-2.94-4.52-.79-12.09-8.3-13.9-1.82-19.1-3.71-38.18-5.39-57.29-.44-5-1.11-9.74-3.94-14-1.85.78-2.74,3.71-5.5,2.45,4.72-14.12,5.69-28.11-1.44-41.81.49-.83,1-1.65,1.49-2.47a4.34,4.34,0,0,1,2.83-1.28c4.09-.57,8.46,1.38,12.31-1.42a8.45,8.45,0,0,1,3.17-.63c1.77,0,3.54,0,4.75-1.58a6.06,6.06,0,0,1-5.77.85C1047.37,792.22,1048.89,790.82,1051.17,789.69Z"/><path class="cls-1" d="M1044.09,1014.88c-8,6.72-11.93,16.26-17.36,24.76-2.64-3.6,5.39-7.68-.5-11.14-1-8.27,5.86-14,7-21.66.92-6.37-.09-9-6.77-5.51-3.11,1.61-6.87,4.86-9.65.56s1.23-7.5,3.88-10.46c2.46-2.75,5.29-5.71,8.89-6.22,11.35-1.61,10.29-9.47,9.22-17.31-1-7.14-3.51-14.08-2.69-21.46,2.29-1.74,4.43-.74,6.56.36a7.87,7.87,0,0,1,3.5,5.57c1-2.22-.36-4.56,0-6.89,1.38-8,3.7-14.46,14-9.59,1.91.9,3.88-.59,5.83-.92,7.14,2.45,5.93,7,2.27,11.25-5.93,6.83-10.53,1.12-17.44-4.19,3.85,12.83-5.9,21.51-4,32.79,9-.35,11.6-9.51,19.7-11.88-13.57,15.79-28.2,31-28.33,53.25Z"/><path class="cls-1" d="M1064.86,974.15c6.48-14.31,17.89-24.73,31.11-33.72l-28.5,35.79Z"/><path class="cls-1" d="M1089.9,887.46c10-6.07,8.77-16.81,11-26.13a1.13,1.13,0,0,1,.91-.62,9.74,9.74,0,0,1,1.88.82c-2.46,10.62,4.87,6.34,9.47,6.22C1107.73,877.08,1101,884.85,1089.9,887.46Z"/><path class="cls-1" d="M1100.63,903.5c2.51-10.78,9.31-15.09,15.45-19.91,1.4-1.1,2.81-1.27,4.15.25,1.79,2,1.15,4.08-.79,4.92C1112.66,891.7,1109.32,898.86,1100.63,903.5Z"/><path class="cls-1" d="M1098.64,904.09c.56,6-3.05,8.19-7,10-.41.19-2.43-1.52-2.32-2C1090.39,907.47,1093.36,905,1098.64,904.09Z"/><path class="cls-1" d="M970.28,1063c.31-6.32,6.23-6.74,10-8.63,11-5.49,20-14.6,32.41-17.41C1000.37,1048.59,985,1055.26,970.28,1063Z"/><path class="cls-1" d="M1071,580.33c2.75,1,5.34,1.11,7.51-1.29-.22,4.94-1.33,9.39,1.57,14.65a601.21,601.21,0,0,1,45.5,105.95c.4,1.24-1.78,11.71,6,4.12-3.28,21.09,7.4,40,9.69,60.23.67,5.87-.41,12.4,3.29,17.82,1.67,1.46,1.61,3.09.51,4.84l2.76,39-3.64.4c-2.38-33.57-6-67-14.68-99.61-1.22-4.62-1.21-11.94-9.41-6,1-31.32-16.09-57.14-26.3-85-3.9-10.65-10.38-20.31-15-30.71-2.62-5.83-6.4-9.09-12.69-9.53C1066.45,589.83,1072.89,586.46,1071,580.33Z"/><path class="cls-1" d="M1201.22,739.9c-3,15.34-10.83,28.29-19.75,40.74C1185.25,765.7,1192.87,752.62,1201.22,739.9Z"/><path class="cls-1" d="M1186.53,796.39c-3.44,9-9.81,15.27-18,19.88A54.73,54.73,0,0,1,1186.53,796.39Z"/><path class="cls-1" d="M27.42,739.9A160.41,160.41,0,0,1,47.2,779.37,88.24,88.24,0,0,1,27.42,739.9Z"/><path class="cls-1" d="M182.11,238c2.38-8.79,15.3-8.65,16-18.87a3.73,3.73,0,0,1,3.12-.55c.92,2.73,2.86,5,3.54,7.87-10.78,15.08-13.26,32.86-16.61,50.36-.81,4.26,0,9.11-4.37,12.1a3.75,3.75,0,0,1-3.59-.62c1-18.1,5.85-35.46,10.88-53C187.13,234.06,185.18,237.88,182.11,238Z"/><path class="cls-1" d="M180.21,288.29a10.87,10.87,0,0,0,2.28-.05c4.38,5.1,2.71,11.17,2.69,17-4.58,6.07-2.11,13.17-2.86,19.8-.74,0-1.48-.05-2.22,0-3.15-3,5.36-11.74-5.4-11C181.46,306.46,179.07,297,180.21,288.29Z"/><path class="cls-1" d="M155.82,327.37c-3.86,5.77-8.49,10.59-15.47,12.48C143.82,333.61,148.52,328.87,155.82,327.37Z"/><path class="cls-1" d="M1023.78,224.13c3-.15,6.29-.13,3.71-4.71a1.84,1.84,0,0,1,3-.31c1.86,9.72,11.91,11.38,17.32,17.61-3.5,1.66-5.94-1.81-10.32-2,6.55,22.76,12.3,45.33,11.68,68.82-.12,4.3,4.71,5.44,4.71,9.3-2.31,5.72-.27,12.75-5.32,17.65-2.26-.27-3.71-1.07-2.44-3.67-2.11-6.65,4.27-15-4.14-20.38.09-26.76-2.48-52.94-16.69-76.58C1024.26,228.06,1023.28,226.32,1023.78,224.13Z"/><path class="cls-1" d="M1030.53,219.11l-3,.31q-5.93-12.3-11.83-24.6C1025.78,199.75,1026,210.77,1030.53,219.11Z"/><path class="cls-1" d="M867.13,94.74l.09,7c-13.7-6.27-29.92-4.31-43.23-12.6,3.32-5.55,8.62,4,11.37-2.23q2.43-1.32,4.88-2.62c2,1.06,1,3.67,2.59,5,1.56,3.5,4.24,7.28,7.86,4.29C857.11,88.22,861.87,91.72,867.13,94.74Z"/><path class="cls-1" d="M842.83,89.23c-2.64-.73-2.56-2.88-2.59-5,16.44-4.41,32.9-3.73,49.36-.09l-5,2.42C870.73,88,856.46,83.48,842.83,89.23Z"/><path class="cls-1" d="M920.73,136.69l-4.31-.9c-.39-1.87-.41-4-2.91-4.49-6.43-3-15.4-2.49-17-12.2l2.76-2.83L923.38,134C924,136.3,923.19,137.32,920.73,136.69Z"/><path class="cls-1" d="M920.73,136.69l2.65-2.72c8.13,2.87,17.24,2,25,6.53V143Z"/><path class="cls-1" d="M211.71,193.53c-.1,10-7.57,17-10.57,25.89l-3-.29C201.85,210.17,205,200.9,211.71,193.53Z"/><path class="cls-1" d="M433.19,110.71c4.11,1.42,5.8,9.66,13.18,1.5,5.22-5.79,15.47,1.45,23.28,2.44,8.59,1.08,17.81.14,26.36,3.38-5.65-5.86-13.44-7.31-20.48-10-22.88-8.74-46.3-15.49-70.62-19-4.29-.61-8-.57-11.63,1.55-4.1-7.06-12.25-1.41-17.29-5.51-.7-1.62-2.72-2.09-3.34-3.79,11-5.79,23.61-3.47,35-7,2.32-.71,6.3,1.48,6.79-2.94,1.4-12.57,11.78-9.4,19.11-10.42,4.11-.57,8.65,1.7,13.15.69l1.17,1.44c-15.22,5.17-27,18-43.69,19.83-3.78-4.14-8-.35-12-.79,3.81.71,7.7-3,11.49.31C438.6,87,471.42,98.69,503.91,111.51c5.15,5.11,11.43-.45,16.9,1.75a3.51,3.51,0,0,1,.69,3.12c-3.32,6.31-9.33,7.47-15.54,7.75-8.94.41-17.86.49-26.74-1.42-12.11-2.6-24.33-.26-36.49,0-6.71.13-9.56-3.21-11-9A3.56,3.56,0,0,1,433.19,110.71Z"/><path class="cls-1" d="M384.19,96.56l-18.08,19.33c12.95.2,23.28-6.15,34.62-6.54a3.88,3.88,0,0,1,.85,3.35c-.57,1.07-1.26,2.31-2.38,2.59-16.68,4-32.72,9.62-47.09,19.31-2.78.57-5.47-.2-8.2-.62a9.55,9.55,0,0,0-2.24-.93l-2.92-2.32c7-1.29,12.13-5,17.24-10.17C364.65,111.83,371.46,100.6,384.19,96.56Z"/><path class="cls-1" d="M526.27,66.41c6.24.15,15,4.59,13.26-8.41-.29-2.09,3.1-5.09,5.25-3.28,8,6.73,20.81.14,27.41,10.73,1.55,2.48,6.81,5.15,9.31,1,2.73-4.5-2.84-4.78-5.3-5.93-3.74-1.75-5.31-4.27-2.92-7.53,1.36-1.86,3-6.73,7.16-2.2,2.47,2.71,4.77.45,7.43-.61,9.91-3.94,19.68-2.64,29.07,2.17-.86,1.9-2.65,3-4,4.41.72,6.15,4.61,8.25,10.26,9.15,9,1.43,18.36,1.72,26.32,7.1a10.12,10.12,0,0,1,2.89,4.41,5.33,5.33,0,0,1-1.39,4.83c-4.57,2.48-7.37-1.75-11-2.75-5.06-1.37-11.24-5.7-14.84,2.57.06,9.31-7.64,6.33-12.45,8-4,4.28-10.29,5.45-13.85,10.29-1,2.45-1.78,5.08-4.15,6.7a5.48,5.48,0,0,1-4.49-1.41c-3.19-2.7-5.94-6.19-10.78-5.85-1.65.07-3.29.19-4.93.39-6.88.9-13.32,4.07-20.39,3.82a13,13,0,0,1-3.25-.88c-4.57-3.76-8.94-1.61-13.31.52-4.32,1.26-8.53,3.72-13.19,1.23,4.4-12.44-8.3-12.6-13.21-18.37C518.4,77.8,529.42,79,538.28,79c9.2,0,16.94-2.22,25-5.41,2.43-2.42,4.87-2.08,8.74,2.51-5.64-12.12-11.22-4.26-16.24-3.67-9,.19-17.8,2.2-26.8,1.75a5.8,5.8,0,0,1-4.1-4.09A4.46,4.46,0,0,1,526.27,66.41Z"/><path class="cls-1" d="M526.27,66.41c-.2,1.29-.4,2.59-.61,3.88-10.87-5.85-11.36-8.12-3.76-17.24q-6.78,4.5-13.58,0c-1.9-3-1.9-5.83.83-8.39,7.88-2.62,15.64-6,26.5-2.66-4.73-6.88-9.13-5.44-13.13-4.48-9.9,2.37-19.74,5.06-29.68,7.24-5.78,1.27-7.9,3.82-6,9.4,4.69,0,13.15-6.29,12.85,6.31,0,1.5.94,1.91,1.82,2.76,10.79,10.46,10.77,10.49-4.2,16-3.65.85-8.23,1.45-10.2-1.53-6.37-9.62-15.27-8.4-24.56-7.33-3.95.46-8,.28-11.7-1.76-4.16-6.09,2.35-3.79,3.74-5.28-2,0-4.53.9-6.84-.53a6.85,6.85,0,0,0-1-1.18c10.44-3.86,22.35-3.23,31.67-10.45-6.76-3.09-13.06-6.9-21.24-6.11-7.86.75-1.71-11.71-9.77-11.8,1-4,4.82-4.79,7.62-4.84,29.22-.53,57.93-6.15,87-8.19,2.34-.16,5,.11,6.17,2.86A7.9,7.9,0,0,1,544,25.3a6.4,6.4,0,0,0,4-2.35c3,0,6.43-1.58,8,2.61a3.63,3.63,0,0,1-1.15,3.22c-2,1.88-4.77,2.41-6.93,4,2.59-.7,5-2.68,7.89-.88-.09,5.63-5.84,8-8.7,8.88-9.94,3-11.25,15.65-22.42,17.62C518.81,59.45,528.42,63.07,526.27,66.41Z"/><path class="cls-1" d="M739.65,88.17c-7.49-6.86-15.21-12.44-25.4-4.68-14.79-8-31.08-11.41-47.19-15.37-3.12-.26-6.18-.68-8.86-2.46-2.86-4.65-8.71-8.37-4.8-15.16,8.61,6.72,18.87,9.18,28.94,12.85a284.62,284.62,0,0,0,47.2,12.76C734.82,77.07,739,81.85,739.65,88.17Z"/><path class="cls-1" d="M777.71,121.33c-5.14.47-10.29-.51-12.21-5.53-4-10.44-10.47-10.21-18.61-5.69-5.4,3-12.42,3-16.31,8.81-2,6-5.22,2.06-8.1,1a6,6,0,0,1-1.58-3,4.7,4.7,0,0,1,1.12-3.18c13-.51,24.06-6,34.63-12.88C766.87,104.37,768.44,116.8,777.71,121.33Z"/><path class="cls-1" d="M653.4,50.5c-.37,5.68,6.19,8.45,5.94,14.09-1.72,2.33-4.25,2.91-6.91,3.22a10.31,10.31,0,0,1-2.42.07c-4.77-.62-11.7-.77-10.59-6.94,1.08-6,7.6-.92,11.86-1.87,1.3.22-.7-1.72-.31-.13.09.4-.42.72-1.15.29-6.57-3.93-14.82,1.34-21.14-3.9-.79-3.4-2-7.17,4.06-5.1Z"/><path class="cls-1" d="M771,135.54c5.57-4.23,12.91-.77,18.84-4.14-.34-3.76-5-2.09-5.82-4.89,6.48-.92,13.36-3.41,17.53,4.55-2.25,7.32-8.6,4.34-13.35,5.18s-9.6,1.22-14.4,1.8Z"/><path class="cls-1" d="M825.58,128.82c-6.29,3-11.06,13.43-19.9,4.08,5.38,1.95,8-1.67,10.05-5.45C820.4,119,823.49,119.75,825.58,128.82Z"/><path class="cls-1" d="M632.74,50.23c-3.4-.2-3.07,2.58-3.7,4.61-5.74,5.86-11.44,8.15-17-.21l4.91-2.25C622.93,57,626.45,43.4,632.74,50.23Z"/><path class="cls-1" d="M1186.42,818.46c-5.27,10.54-5.08,23.6-14.83,32.07C1176.5,839.83,1176.37,826.79,1186.42,818.46Z"/><path class="cls-1" d="M328.86,1136.15c-4.92-7.28-20.07-10-10.59-24,.81-1.21-2.77-5.37-4.32-8.16a8.37,8.37,0,0,0,1.57-1.34c4.71.32,8.67,3.82,7.88,7.4-2.17,9.78,5.14,16.28,6.79,24.58A10.65,10.65,0,0,0,328.86,1136.15Z"/><path class="cls-1" d="M771.51,1071.47c-1.91-12.06,3.1-24.59-2.48-36.4a7,7,0,0,1-1.5-4c2.08-12.62-3.3-26,4.07-38.1a15.41,15.41,0,0,0,1.92.07c7.65,10.32,2.5,22.19,4.06,33.26-.26,2.75.23,5.64-1.3,8.19-4.85,12-.83,24.69-2.67,36.93C772.91,1071.44,772.21,1071.46,771.51,1071.47Z"/><path class="cls-1" d="M653.8,1143l26.73-.66c0,.8,0,1.59,0,2.39l-21.58.8Z"/><path class="cls-1" d="M787,39.77c-5.43,1.4-8.85-.5-12.29-2.94C779.78,32.09,784.12,30.58,787,39.77Z"/><path class="cls-1" d="M997.44,920.33a6.85,6.85,0,0,1-1.94,7.83c-11.1,8.76-15.78,23.71-29.91,29.75-8.67,3.71-8.08,14.19-3,21.58,7.86,11.42,16.81,2.32,25.06,3.53-2,7.55-9.67,3.62-14.12,6.88-7.21,5.27-7.09-2.72-9.94-6.27-5.81-7.26-13.17-5.42-20.31-1.66,9.33-5.76,10.08-20,17.44-23.87,11.44-6,14.7-18.48,25.18-24C991.64,931,992.57,924.06,997.44,920.33Z"/><path class="cls-1" d="M1039.19,924.24c-12.14-4.73-15.85-14.4-9.68-25.28,4.65-8.21,4.83-9.48,1.4-11.38-6.41-3.56-10.48-3.29-13.55,5-2.69,7.25-6.11,15.15-14.63,18.32,4-9.25,11.37-16.56,14.68-26.31,1.38-4.09,5.18-6.29,9.7-2.76,1,.74,2.16,2,3,1.89,24.13-4.78,5.53,12.19,5,12.85-7.59,9.51-6.92,16.29,4.54,21.64C1043.27,919.88,1039.07,922.17,1039.19,924.24Z"/><path class="cls-1" d="M1057,924.86c-2.92,3.92-7.12.42-10.48,1.8-2.78,1.44-5.16,2.08-4.94-2.48,4.88-2.71,4.78-7.56,5.23-12.17C1054.46,913.65,1054.46,913.65,1057,924.86Z"/><path class="cls-1" d="M1032,843.2l5.5-2.45c-3.77,11.07-8.43,21.65-17.47,31.86C1021.81,860.65,1029.07,852.79,1032,843.2Z"/><path class="cls-1" d="M1041.6,924.18c1,2.14,3,2.24,4.94,2.48l-4.89,22-4.47-2.14c1.12-6.6,7.6-12.92,1-19.92.28-.84.56-1.69.85-2.53Z"/><path class="cls-1" d="M994.82,823.57a34.7,34.7,0,0,1,20.34-12.48A39.06,39.06,0,0,1,994.82,823.57Z"/><path class="cls-1" d="M977.65,834.67c3.11-7.9,10.34-9.42,17.38-11.26C990.81,829.59,983.69,831.29,977.65,834.67Z"/><path class="cls-1" d="M1048.5,329.86a183.85,183.85,0,0,1-10,47.25c-2.93,8-1,12.42,4.68,17.75,11.16,10.51,22.94,20.52,31.64,33.4-9.79-3.26-14.43-12.47-21.45-18.9-6.24-5.71-11.46-12.55-18.34-20.24l-15.92,33.76,4.71-.34c4.15-.33-.9-9.25,5.5-6.49,4.2,1.81,9.32,5.18,7,11.29-2.89,7.47,7.35,17.26-4.14,23.22-.12.06,1,4.64,2.36,5.14,17.19,6.56,18.71,24.5,27.39,37.17,8.85,12.92,13.47,25.91,2.36,40.31-3.81,4.93.44,12.18-2.9,17.78a2.36,2.36,0,0,1-3.12.3c-4.49-8.09-2.48-15.91,1.65-23.25,5.41-9.61,5.22-18.75-1.38-27.49-7-9.32-8.59-21.57-16.36-30.53,9.87,15.21,13.75,30.5,10.61,49.52-1.94,11.79-3.2,22.42-10.27,32.22-2.55,3.52-3.55,8.31-.37,12.56,1.47.24,2.92.34,4.23.62,3.17-2.13,3.51-7.25,8.1-8a6.92,6.92,0,0,1,4.73,1.27c2.33,1,3,2.72,2.11,5.06-2.31-.11-5.33-2.63-6.6,1.2-2.53,7.64-8.74,14.59-5,23.52,1.3,3.08,2.46,6.19,1.1,9.41-.74,1.75-1.94,3.87-3.5,4.56-1.94.87-4.66-.8-4.86-2.58-.6-5.31-6.08-5.7-8.31-9.2.31-.27.72-.47.91-.8,2.14-3.61,6.61,2.6,8.21-1.88.43-1.21-.62-3.89-2-4.08-4.9-.65-3.76,5.41-7,6.88-1.77.17-4.17-.59-3.83-2,3.36-14,.31-29.45,7.94-42.37,3.94-6.67,3.39-11.15-.85-17.26-5-7.17-11.85-13.42-13.43-22.66,11.19,1.49,12.45,12.17,17.57,18.07-.47-2-2.58-5.1-1.3-8.1,9.19-21.57-2.48-36.57-16-50.84-7.92-8.38-10.44-17.94-8.17-29,9.63,1.38,9.63,1.38,8.84,14.44,2.1-7.29,7-14.21,2.82-22.76-3.8,1.35-9.17,0-9.8,6.52a14.31,14.31,0,0,1-10.17,4.29l-1.73-1.47c-.94-5-.33-10-.34-14.95a4.6,4.6,0,0,1,2.17-2.46c11.57-4.7,12.31-16.82,17.61-25.8,1.8-3.06,1.29-7.08,3.62-10,6.32-1.33,5.89-7.26,6.92-11.43,3.74-15.12,6.72-30.42,10-45.66Z"/><path class="cls-1" d="M1066.21,595.05c-9.87,15.17-21.59,28.45-37.9,37C1040.78,619.57,1052.23,606,1066.21,595.05Z"/><path class="cls-1" d="M1061.14,563.11a23.68,23.68,0,0,1,10,17.39A26.77,26.77,0,0,1,1061.14,563.11Z"/><path class="cls-1" d="M1027,633.21c-2.29,7.49-8,11.17-14.94,13.57C1015.1,640.17,1021.18,636.86,1027,633.21Z"/><path class="cls-1" d="M991.82,273.35c14.79,4.21,26.75,13.37,38.84,22.29C1015.86,291.45,1003.82,282.44,991.82,273.35Z"/><path class="cls-1" d="M1029.4,384.05c-7.84-3.11-14.09-7.95-17.42-16C1019.13,371.93,1025.2,377,1029.4,384.05Z"/><path class="cls-1" d="M1017.25,732.71q5.25,18.4,10.49,36.81c-.91-9.93,8.4-10.3,13.58-13.08,3.2-1.71,2.27,4.78,3.51,7.43a3.64,3.64,0,0,1-2.55,2c-7.31.75-7.55,5.54-6.7,11.27,1.1,7.37,2.45,14.83-1.66,21.84l-1.87,0q-9-33-18.1-66.06Z"/><path class="cls-1" d="M275.52,295.51c-2.43,8-8.38,14-12.38,21.08-1.83-4.15,3.46-7.53,1.2-11.87-6.21-1.31-9.77,4.79-15.2,5.68-4.58.75-9,.87-12.19-3.41a8.6,8.6,0,0,1-1.13-8.19c1.9-5.32,6.55-3.36,10.42-3.29,1.64,2.74-3.94,6.05-.71,7.29,5.59,2.15,9.15-3.2,14.77-5.8-5.51-4-10.32,2.63-14.26-1.33,8.38-11.14,14.46-11.69,22.68-1.18C271.33,297.84,273.67,293,275.52,295.51Z"/><path class="cls-1" d="M290.12,303c3-11.73,3-11.73,9.78-14.09-11.5-7.33-16.45,5.42-24.49,6.68,3.94-8.81,11.61-11.51,20.36-12.63,3.31-.42,5.65.28,6.39,3.84.56,2.71,2,6.53-2.61,6.31C292,292.76,299.74,306.05,290.12,303Z"/><path class="cls-1" d="M241,271.09c14-10.13,28.12-19.87,46.12-21.27C271.51,256.37,257.32,266,241,271.09Z"/><path class="cls-1" d="M199.27,296.89c11.29-13,26.18-20.18,41.94-25.94C228.35,281.41,213.46,288.59,199.27,296.89Z"/><path class="cls-1" d="M263.11,332.51c3-5.18,4.26-11.59,10-14.95-.2,9.61,6-1.11,7.76,2.46C276.13,325.85,270.39,330.26,263.11,332.51Z"/><path class="cls-1" d="M273,317.78c3-8.18,5.24-17.36,17.39-14.91C281.74,304.56,280.19,314.48,273,317.78Z"/><path class="cls-1" d="M432.53,236.71c4.07-5.55,10.68-6.56,16.48-8.38,7.61-2.38,9.67-5.92,7.58-13.79-4.2-15.75-3.77-15.8-20.8-12.4-5.89,1.17-11.87,1.94-17.81,2.89a3.39,3.39,0,0,1-.41-3.24c3.81-4.49,9.41-4.38,14.5-5.6s10.4-2,15.64-3.48c-9.07-7.19-20.42.29-29.6-5.11,2.5-9,10.32-13.16,17.33-10.61,10.84,3.95,21.34,4.21,32.29,3.69a5.33,5.33,0,0,1,4.25,2.08c.69,3.47-1.27,5.21-4.24,6.45,9.79.5,19.14-2.5,26.57-2.92,3.81.06,3.19-1.66,3.19,0s.74.08-.89,0c-5.34-.3-10.44,1.09-15.58,2.14-4.62,1-8.07.06-8.88-5.31-1.51-3.75,1.39-4.41,3.64-4.23,12.9,1,26.1-2.86,38.7,1.94,5.06,1.93,2.88-1.85,4.2-3.56,4.23-5.5,9.19-11.83,17.51-8.69,2.84,1.06,4.68,3.39,6.78-.35,1.86-3.31,1.61-6.78-1.76-8.54-8.56-4.48-5.19-8.13.28-12.11,5.86-4.26,5.61-7.88,2.46-15.19-4.72-10.95-14-13.14-22.35-17.79-.41-.5-.83-1-1.25-1.49,6.37-8.48,11-8.9,23-2.09-2-1.55-3.37-3.44-3.35-6.1,2.31-5.42,8.67,2.43,10.88-3.32l3,.44c8.33,4.56,9.09,12.41,7.77,20.32-1,6-1.47,12.38,3.73,15.39,5,2.89,9.9-1.59,13.91-5.1s7.56-7.38,12.43-9.71l1.77-.19a5.2,5.2,0,0,1,2.91,2c4.38,13.68,13.08,25.8,14.72,40.48-.58,1.79-1.6,3.11-3.62,3.34-8.18-8.68-10-21-17-30.89-4,3.44-1.71,6,.11,8.54,2.48,3.49,6.9,6.22,4.64,11.61-6.7,2.39-9.16-3.68-13-6.71-5.54-4.38-10.62-6.11-15.64.49-3.54,1.81-7.2-1.49-11,.37-.78,4,2.72,4.26,5,5.1,7.66,2.79,15.56,4.94,23.11,8,3.54,1.45,9.31,1.55,7.92,8.13-12.08.86-22.85-4.5-34.32-6.56,11.17,2.54,22,6.48,33.62,7.07,2.53-1.06,4.13-2.61,2.88-5.63,1.79-3.23-2.59-7.12,1.08-10.16,6.92-.64,8,5.25,10.68,9.44a12.18,12.18,0,0,1,.57,3.34c-2.53,6.07-4.2,12.29-2.76,19-1.29,5.16-6.46,3.48-9.56,5.48-5.29,1.6-10.1,6.82-16.21,2.23-1.77-.56,2.42-4.64-1.76-3.46-32.57,9.21-65.1,18.48-97.22,29.24-12.59,4.22-6.47,12.54-7.49,19.54-.39-.09-1-.06-1.14-.28-8.56-19.11-21.46-11.06-34-5.56C435.08,237.21,433.72,236.76,432.53,236.71Z"/><path class="cls-1" d="M356.43,273.55c9.19-9.45,21.65-13.39,33-18.87,14.06-6.77,27.4-15.55,43.26-18.1-15,10.92-33,15.92-49.17,24.47C374.8,265.67,366.73,272.16,356.43,273.55Z"/><path class="cls-1" d="M473.07,248.83c11,.94,16.83-9,25.87-12.21,1.73,3,1.1,6,.53,9.15-14.36,6.67-14.36,6.67-4.39,19a11.48,11.48,0,0,1,2.16,4.23,2.8,2.8,0,0,1-1.42,2.81c-8.83-4-13.13-13.43-21.52-17.95Z"/><path class="cls-1" d="M474.45,253.77c-10.73,10.92-24.55,17.44-37,25.93C446.77,266.75,460.42,260,474.45,253.77Z"/><path class="cls-1" d="M334.32,287.1c4.94-8.63,13.4-11.52,22.3-13.7C350.78,280.55,342,282.9,334.32,287.1Z"/><path class="cls-1" d="M187.07,462.41c4.89-3.32,7.88-8.35,11.62-12.73a5,5,0,0,1,6.65-1c3.14,2.11.89,4.6-.72,5.93-7.62,6.26-10.47,15.88-16.72,23-2.25,2.57-4.25,6.32-8.77,2.72-4.15-3.31-2.22-6.39,0-9.35,2.32-3.12,3.55-7.32,7.9-8.58,2.82,2.58.11,5.22,0,7.83C187.73,467.66,189.82,465,187.07,462.41Z"/><path class="cls-1" d="M633.54,191.56l4.77,8c-2.25,1.06-6.7-5.21-7.07,2.12-8,4.58-5.63-5.25-9.29-6.72l-3.58.42c3.6,30.44,2,61,2,91.53,0,8.16,3,14,8.8,18.94l5.37,2.41c-.1.82-.28,2-.85,2.12-9.46,2.11-13.83,9.23-17.29,17.3l-4.26-.06c3.93-15.69-6.39-18.15-18-19.4l5.37-2.42c7.65-5.14,8.93-12.62,8.83-21.25-.3-26.93-.2-53.86,0-80.73-.2-1.47-.58-2.89-2.27-3.39-2.9,1.06-5.14,4.19-8.76,2.69-1.11-2.89-4.94-2.33-6.32-4.94-.71-3.44,2.8-4.56,3.82-7,1.76-3.55,5.56,2.54,7.21-1.52,8.19-2.45,16.44-1.47,24.68-.4C627.87,193.28,632.35,187.55,633.54,191.56Z"/><path class="cls-1" d="M651.48,97.67c-.67,5.55-4.15,9.8-6.73,14.46a3.76,3.76,0,0,1-2.61-2.09,37.53,37.53,0,0,0-5.5-10.83c-2.85-4.14-6.38-3.92-10.75-3-5.41,1.12-5.92,4.69-5.95,9-.12,20,.19,39.93-.19,59.9a9.83,9.83,0,0,0,1.82,2.81l2.52-.22-.19,3.39c-6.45,6.68-12.84,4.74-19.21-.11l-.12-3.26c.84-1.06,1.62-1,2.33.14l2.76-3c-.87-14.43-1.35-28.87-1.1-43.32.13-7.34-2.66-11.67-10.72-10.94-1.9-.59-3.43-1.48-3.07-3.86l2.35-7.48c7.34-2.3,15.11-4.18,14.25-14.53,5.1,3.73,9.46,3.57,12.73-2.4,1.24-1.68,3-2,4.91-1.79,5.24,1.65,9.53,5.22,15.55,5.75C650.18,86.79,653.53,91.21,651.48,97.67Z"/><path class="cls-1" d="M604.69,171c6.4.69,12.79,3.3,19.21.11,5.54,5.35,7.32,11.27,2.78,18.16-8.18,3.05-16.41,2.53-24.68.39C597.76,182.68,599.05,176.52,604.69,171Z"/><path class="cls-1" d="M862.47,150.79c-1.43-3.22-4.23-6.95-.71-9.73,2.06-1.63,4.42,1.23,4.93,3.77.67,3.36,2.64,8.2-4.45,5.74Z"/><path class="cls-1" d="M606.67,195l3,2.8c1.26,7.08-1.2,13.58-3.33,20.06-6.2,19-12.65,37.85-18.84,56.82-1.21,3.71-3.73,7.31-2.19,11.68,4.93,2.28,11.87-3.5,15.33,3.61,1.42,2.93.33,5.58-3,6.78-1.87-4.76-4.87-2.42-7.69-1.22a51.37,51.37,0,0,0-31.68,17.16c-1.86,2.1-3.45,4.54-6.86,3.56-4.88-5.85-.48-8.29,3.31-11-17-7.37-16.66-7.13-27.19,9-5.4,8.28-7.46,19.27-17.86,23.85-.59-.53-1.18-1-1.8-1.53,6.87-12,13.55-24.09,20.7-35.91,2.75-4.56,4.1-8-2.45-9.67-9.63-2.52-16-12.73-27.26-11.38-.07-2.95-.73-5.67-3-7.78a9.15,9.15,0,0,1,1.41-1.51c10.33-2.85,15.46-12.16,23-18.43,4-3.34,6.49-9.65,13.54-7.92,2.5,9.33-5.77,12.6-10.41,17.48-13.68,14.42-13.38,16.36,5.5,23.74,3.42,1.34,7.18,1.32,10.49,3a59.71,59.71,0,0,0,11,5.26c13,4.4,20,1.32,24.68-11.68,7.48-20.59,12.83-41.89,20.78-62.36C599,211.05,602.21,202.76,606.67,195Z"/><path class="cls-1" d="M656.15,236.73c-6.87-4-9.63-11.17-13.67-17.37C650.59,222.35,653.9,229.12,656.15,236.73Z"/><path class="cls-1" d="M675.64,227.92c5.84,4,12.55,7.17,15,14.7C684.24,239.12,677.91,235.59,675.64,227.92Z"/><path class="cls-1" d="M293.41,629.76c-6.27,3.09-11.57,10.4-19.09,4-2.31-2-3.05-6.3-.93-7.56C280.85,621.74,286.47,629.25,293.41,629.76Z"/><path class="cls-1" d="M373.71,175.54l-12.21,0c0-.74,0-1.49,0-2.23,9.7-1.28,19.41-2.55,29.1-3.91.65-.1,1.19-1,1.85-1.53.72-5.36-7.23-3.65-7-8.53,12.11-.17,15,4.09,13.71,20.14A42.48,42.48,0,0,1,373.71,175.54Z"/><path class="cls-1" d="M368.61,138.21c-8.58,4.37-19.69-4.76-27.23,5.11l-3-.33,5.55-9c1.78-2.68,3.59-3.53,5.47-.1C355.87,135,364.05,128.54,368.61,138.21Z"/><path class="cls-1" d="M987.87,392.79c4.9,4.94,8.13,11.39,16.29,12.95,10.17,1.95,2.55,9.63,3.56,14.6-.34.31-.66.62-1,1-12.28-2.74-25.38-15.73-27.28-27.06,3-2.35,4.18.24,5.65,2.06C989.22,397.64,986.94,394,987.87,392.79Z"/><path class="cls-1" d="M653.23,1046.57c13.34-4.6,27.4-2.47,41.08-4,25.06-2.73,49.94-6.49,74.86-10.07,0,.85-.09,1.69-.14,2.53-15.42,5.6-31.77,6.16-47.76,8.48A527.57,527.57,0,0,1,655.9,1049Z"/><path class="cls-1" d="M1078.55,813.42c3.19-2,7-4.43,9.28.28,3.39,6.93,6.9,15.22,2.59,21.92-2.18,3.37-2.64,6.24-3.59,9.57-1.34,4.76-7.21,7.37-9.42,5.26-10.63-10.13-12.44,2.75-18.25,7-3.63-9.45.43-15.06,6.88-19.84.76-.27,1.67-.94,2.27-.73,13,4.58,14.17-4.92,16.14-13.57-2.51.88-2.82,3.64-4.6,5.08-2.1,1.72-3.95,4.39-7.19,1.91-2.29-7.05,3.11-11.43,5.8-16.75Z"/><path class="cls-1" d="M1074.85,764.66q22.7-22.18,45.37-44.39C1107.94,738,1094.07,754.05,1074.85,764.66Z"/><path class="cls-1" d="M1044.83,763.87c5.5,4.27,4.91,9.6,2,14.77-3.08,5.42-1.3,7.85,4.23,8.81,0,.75.09,1.5.14,2.24q-1,2.43-2.05,4.85c.78.55,1,1,.67,1.45a1.25,1.25,0,0,1-.92.56l.19-.13c-8.39,2.46-9.5-4-10-9.21-.65-7.51.26-15.12,4.22-21.94A14.31,14.31,0,0,1,1044.83,763.87Z"/><path class="cls-1" d="M1058.66,780.59c2-8,9.11-10.69,15-14.73C1071.61,773.79,1064.54,776.59,1058.66,780.59Z"/><path class="cls-1" d="M987.48,983.16c1.82-7.8,9.27-8.09,14.42-8.36,7.29-.38,12.59-4.74,13.82-9.3,2.82-10.43,8.62-19.76,10.68-30.16,1.38-6.93,4.13-8.82,10.36-7.58-7.24,12.13-14.93,24-17.18,38.45-1.11,7.09-8.09,11-13.73,11.79C999.26,978.85,993.75,982.12,987.48,983.16Z"/><path class="cls-1" d="M985,1017.55c2-4.16,4.42-8.33-4-6.4-8.77,2-14.47,9.61-22.92,12.05l-2.63-.82c11-8,21.68-17,36.8-14.93,3.1.81,3.1.81,2.33,7.19C991.14,1014.67,988.85,1018.65,985,1017.55Z"/><path class="cls-1" d="M994.63,1014.64c-4.68-1.13-1.23-4.9-2.33-7.19,4.19-5.26,9.09-2.52,14.11-1.39C1004.15,1011.56,999.78,1013.63,994.63,1014.64Z"/><path class="cls-1" d="M1046,565.52l-5.86,2.42c-1.12-6.36,1.15-11.9,4.31-17.15,4.61-7.67,9.37-8.48,14.06,0l2.81.17c.26,2.71-7.26,3.11-2.18,7.26l-4.85-.05C1049.74,558.59,1049.14,563.48,1046,565.52Z"/><path class="cls-1" d="M1101.65,462.45c11.86,6.67,17.91,17.95,23.47,29.62C1115.06,484,1109.11,472.6,1101.65,462.45Z"/><path class="cls-1" d="M1075.84,429.44c6.37,5.29,12.23,11,16.19,18.45C1084,444.08,1078.15,438.3,1075.84,429.44Z"/><path class="cls-1" d="M1139.88,391.42c-18.08-16.41-35.25-33.73-51.74-51.73A197.48,197.48,0,0,1,1139.88,391.42Z"/><path class="cls-1" d="M1073.58,327.57c-8.14-2.92-14.55-8.15-19.83-14.88C1062.29,315.08,1068.55,320.5,1073.58,327.57Z"/><path class="cls-1" d="M1088.32,339.85c-6.81-1.94-11.54-6.38-14.91-12.43C1080.28,329.28,1085.1,333.6,1088.32,339.85Z"/><path class="cls-1" d="M1016,219.52a40,40,0,0,1-23.6-10C1001.42,210,1008.91,214.25,1016,219.52Z"/><path class="cls-1" d="M400.77,111.68c0-.78,0-1.55,0-2.33,10.81.56,21.88-4.83,32.46,1.36a9,9,0,0,1-1.18,1.36C421.56,114.69,411.09,119.53,400.77,111.68Z"/><path class="cls-1" d="M591.94,124c-4.17.73-6.55-4.52-11.26-3-3.88,1.26-10.1,2.75-3.12-4.55.54-.57-2.2-6.58-2.62-6.84-8.83-5.54-1.09-8.89,1.38-12.86l2.95-.08a9.47,9.47,0,0,1,4.81,6.59,15.63,15.63,0,0,1,0,3.35c-1.13,6.57,4.4,8.05,8.28,10.78,1.6,1.65,3.24,3.3,1.67,5.86A11.37,11.37,0,0,0,591.94,124Z"/><path class="cls-1" d="M648.81,74.94c3-1,6.67-.28,8.79-3.85-2.28-2.21-7.28-1-7.65-5.7l9.38-.8,10.36.57c2.49,3.88,7.57,2.54,10.55,5.15,4.54,4,7.68,8.11-1.48,10.28-4.55-3.75-9.28-5.78-15.28-2.92-3.59,1.71-7.56,2.87-11.33,0Z"/><path class="cls-1" d="M594.06,123.21l-2-3.9c.65-7.23-7-8.3-9.7-13l.39-2.57c3.2-2.34,6.33-1.16,9.47.17.86,1,1.73,1.89,2.6,2.84.87.76,1.74,1.52,2.62,2.27,6.38,6.07,7.12,11.32-2.22,15.08Q594.63,123.65,594.06,123.21Z"/><path class="cls-1" d="M508.67,52.3,499,53c4.5-5.26,5.43-12.16,13.37-10.29a1.08,1.08,0,0,1,.43,1,10.67,10.67,0,0,1-1,1.81C508.09,46.52,509.1,49.74,508.67,52.3Z"/><path class="cls-1" d="M673.38,80.73c1.92,3.14-5,8.13.52,9.33,7.47,1.63,14,9.23,22.71,4.23,2.09-1.21,4.17-2.44,6.26-3.66-9.53,11.94,5.6,10.69,8.53,16-7.67,2.13-13-7.88-21.07-4-6.18-6.41-6.18-6.41-33.33-13,8.72,11.27-2.76,5.9-5.52,8-2.26-5.12-3.65-10.72-11.81-8.48-5,1.39-6.95-4.59-10.47-7,7.24-4.16,14.75,6.78,21.94-.39C658.54,81.31,666.32,88.2,673.38,80.73Z"/><path class="cls-1" d="M678.07,141c9.2-9.28,21.85-12.56,32.73-18.92,3.75-2.19,8.44-2.72,11.3-6.47.18,1.38.37,2.77.55,4.16C707.75,126.73,694,136.13,678.07,141Z"/><path class="cls-1" d="M813.42,1023c14.69-4.09,29.4-8.12,44.05-12.31,2.64-.76,7.28-.1,5.33-5.51.87-1.12,1.8-1.24,2.82-.19,4.2,5.07,14.35,4.12,14,13.82-6.27-7-13.2-7.17-22-4.31-13.47,4.38-27,9-41.2,10.8C814.07,1026.22,813.15,1025.35,813.42,1023Z"/><path class="cls-1" d="M813.42,1023l3,2.3c-13,4.75-26.56,6.92-40.11,9.21q-1.08-2.51-2.17-5C787.79,1030.74,800.27,1024.85,813.42,1023Z"/><path class="cls-1" d="M255.84,347.19c.35-6-.53-12.6,7.42-14.78C259.62,336.76,264.08,345.17,255.84,347.19Z"/><path class="cls-1" d="M361.37,222c3.17-4,8.58-7.53,2.95-13.47,3.19-2.32-6-8.2,2.58-9,5.83,10.92,14.15,9.87,24.43,6.62,8.39-2.65,17-7.92,26.58-3.6,0,.81,0,1.63.07,2.44Z"/><path class="cls-1" d="M528.47,220.56c.74,7.57,12.95,9.05,9.88,18.63a4.18,4.18,0,0,1-4.66.72c-1.82-3.2-3.66-5.57-5.58,0-4.88,1.22-9.78,1.86-14.78.89-1.65-.81-2.75-2-2.65-4,4.9-3.83,5.33-7.55-.24-11.14.86-4.84,4.08-5.9,8-4.13S525.27,222.45,528.47,220.56Z"/><path class="cls-1" d="M501.4,236.57c3.05,5.27,6.75,1.07,10.18.69l2.83,2.26c5.58,1.59,7.06,5,4,9.91-2.55,4.1-6.34,4.75-10.45,2.45a18.34,18.34,0,0,1-7.66-7.48c-5.87-1.66-2.6-4.89-1.35-7.78Z"/><path class="cls-1" d="M577.6,197.28c-11.84,9.49-26.27,14.12-39.47,21.08C548.6,206.29,563.21,202,577.6,197.28Z"/><path class="cls-1" d="M695.26,219.38a40.18,40.18,0,0,1,22.3,12.43A45,45,0,0,1,695.26,219.38Z"/><path class="cls-1" d="M717.36,231.66c7.22.84,12.84,4.47,17.4,10A25.59,25.59,0,0,1,717.36,231.66Z"/><path class="cls-1" d="M641.24,164.32c3.94-8.44,12-10.94,19.84-13.7C656.35,157.91,648.2,160.25,641.24,164.32Z"/><path class="cls-1" d="M660.88,150.78c4.55-5.51,10.23-9.05,17.4-10A25.65,25.65,0,0,1,660.88,150.78Z"/><path class="cls-1" d="M635.07,155.7c14.3-19.08,32.07-34.8,49.43-50.89,1-.88,3-.61,4.46-.88q-25.2,25.66-50.46,51.26C637.85,155.85,636.24,155.55,635.07,155.7Z"/><path class="cls-1" d="M621.57,167.93l-1.15,0h-1.16c-2.76-4-1-8.16.5-11.6,6.63-15.75,9.44-33.51,23.27-45.59a15.63,15.63,0,0,0,1.72,1.42Z"/><path class="cls-1" d="M613.53,187.58c-4.92-.38-11.15.33-10.54-6.7.56-6.57,6.74-5.65,11.44-5.58s11.25,0,11.15,6.18C625.46,189,618.11,186.72,613.53,187.58Z"/><path class="cls-1" d="M839.14,988.05c-2.48.88-4.7.24-6.83-1.09-3-1.87-7.28-3-7-7.35.31-5.3,5.34-3.75,8.48-4.46,7.42-1.67,15.42-6.19,21.3,3.09-9-2.2-9-2.2-25.43,1.34C830.83,984.66,837.28,983.84,839.14,988.05Z"/><path class="cls-1" d="M854.89,978.11c8.18,1.62,16.7,2.47,22.27,9.94C869.36,985.58,860.55,985.36,854.89,978.11Z"/><path class="cls-1" d="M865.62,1004.94l-2.82.19c-1.83-8.22-14.23-4.27-15.35-13.31C853.92,995.62,863.41,995.23,865.62,1004.94Z"/><path class="cls-1" d="M347,198.25c6.87,1.1,10.45-7.46,17.46-5.94-.46,4.54-2.17,7-7.49,7.57-4.91.5-9.08,4-12.82,7.41C343.05,203.63,345.62,201.13,347,198.25Z"/><path class="cls-1" d="M668.28,995.34c5.21.94,10.91,1.74,14-3.49,4.5-7.65-2.81-12.65-5.44-18.68,8.44,2.12,11.07,8.6,10.65,16.1s-7.16,9.1-13,10.79C671,1001.1,668.06,1000,668.28,995.34Z"/><path class="cls-1" d="M675.83,972.06c-3.57-1.65-6.21-3.57-8.43,2.64-2.69,7.49.24,13.9,1,20.77C662,988.35,660.76,972,667,967.22,671.85,963.53,674.69,967.12,675.83,972.06Z"/><path class="cls-1" d="M543.19,321.22c-3.3,7.2-3.54,13.6,5.3,18.7,2.26-5.08-2.81-12.33,4.54-14.94-.12,2.43.24,5-.47,7.24-1.23,3.92,6.21,9.61-.8,11.24-5,1.16-10-2.19-13.24-8.25s-3.26-9.55,2.46-13A23.32,23.32,0,0,1,543.19,321.22Z"/><path class="cls-1" d="M418,187.48c-9.94,3.57-12.54,2.66-17.41-6.11,2.54-.56,5,6.77,7.95-.64,2.82-7.16,9.9-1,14.45-3.59C425.11,183.06,412.31,180.2,418,187.48Z"/><path class="cls-1" d="M442.83,75c4.21,4.44,9,1.74,13.52.94,3.74-.67,9-1.76,9.64,2,.81,4.87-5.08,4.8-8.75,6-3.09,1-7.45-1.57-10.62,6,22.48-9.27,43.59-3,64.68-3.12-7.91,4-17.49,6.7-24.84,3.77-10.09-4-19.34-2.23-28.15,0-9.36,2.41-14.68,1.87-17.07-8.15-.29-1.18-2.43-1.92-3.7-2.87C435.6,73.87,437.4,72.35,442.83,75Z"/><path class="cls-1" d="M442.83,75c-3.59-.52-5.66.69-5.29,4.66-6.32-1.67-6.62-4.05-1.4-8.05,4.3-3.29,9.5-.85,13.82-3C451,74.42,447.14,75,442.83,75Z"/><path class="cls-1" d="M523.56,103.93c-4.5,5.59-10.54,8.5-17.4,10C510.48,108,516.48,105,523.56,103.93Z"/><path class="cls-1" d="M553.11,228.28c-2.47,7.45-8.88,10.78-15,14.4l0-3.65C543.79,236.38,546.8,230,553.11,228.28Z"/><path class="cls-1" d="M567.59,150.62c8.36,1.89,14.84,6.94,21.06,12.44C579.76,162.08,573.36,156.88,567.59,150.62Z"/><path class="cls-1" d="M572.7,236.52c1.46,4-9.43,9.54,1.75,12.55,1.76.47.44,3.25-1.67,4.46-4.2,2.4-8.35,1.65-12.59.39A31.63,31.63,0,0,1,572.7,236.52Z"/><path class="cls-1" d="M560.39,253.72c-4.59,13.35-12.77,24.38-22.24,34.58C542.93,275.08,550.82,263.86,560.39,253.72Z"/><path class="cls-1" d="M585,218.1c-.86,8.4-6.2,13.82-12.43,18.64C574.08,228.81,579.56,223.49,585,218.1Z"/><path class="cls-1" d="M634,100.65c-2.13,2.19-2.75,6.23-6.91,6-2.55-.12-3.16-1.78-3-4.18.24-3.68,2.82-4.83,5.67-5.25C631.87,96.94,633.57,98.23,634,100.65Z"/></g></g></svg>
