<svg width="384" height="20" viewBox="-12 -2 388 20" xmlns="http://www.w3.org/2000/svg">
              <g fill="#0f172a">
                <path d="M0 20 A8 8 0 0 1 16 20" />
                <path d="M24 20 A8 8 0 0 1 40 20" />
                <path d="M48 20 A8 8 0 0 1 64 20" />
                <path d="M72 20 A8 8 0 0 1 88 20" />
                <path d="M96 20 A8 8 0 0 1 112 20" />
                <path d="M120 20 A8 8 0 0 1 136 20" />
                <path d="M144 20 A8 8 0 0 1 160 20" />
                <path d="M168 20 A8 8 0 0 1 184 20" />
                <path d="M192 20 A8 8 0 0 1 208 20" />
                <path d="M216 20 A8 8 0 0 1 232 20" />
                <path d="M240 20 A8 8 0 0 1 256 20" />
                <path d="M264 20 A8 8 0 0 1 280 20" />
                <path d="M288 20 A8 8 0 0 1 304 20" />
                <path d="M312 20 A8 8 0 0 1 328 20" />
                <path d="M336 20 A8 8 0 0 1 352 20" />
                <path d="M360 20 A8 8 0 0 1 376 20" />
              </g>
            </svg>
