<svg width="384" height="20" viewBox="-12 2 388 20" xmlns="http://www.w3.org/2000/svg">
  <g fill="#0f172a">
    <path d="M0 0 A8 8 0 0 0 16 0" />
    <path d="M24 0 A8 8 0 0 0 40 0" />
    <path d="M48 0 A8 8 0 0 0 64 0" />
    <path d="M72 0 A8 8 0 0 0 88 0" />
    <path d="M96 0 A8 8 0 0 0 112 0" />
    <path d="M120 0 A8 8 0 0 0 136 0" />
    <path d="M144 0 A8 8 0 0 0 160 0" />
    <path d="M168 0 A8 8 0 0 0 184 0" />
    <path d="M192 0 A8 8 0 0 0 208 0" />
    <path d="M216 0 A8 8 0 0 0 232 0" />
    <path d="M240 0 A8 8 0 0 0 256 0" />
    <path d="M264 0 A8 8 0 0 0 280 0" />
    <path d="M288 0 A8 8 0 0 0 304 0" />
    <path d="M312 0 A8 8 0 0 0 328 0" />
    <path d="M336 0 A8 8 0 0 0 352 0" />
    <path d="M360 0 A8 8 0 0 0 376 0" />
  </g>
</svg>
